<svg width="913" height="882" viewBox="0 0 913 882" fill="none" xmlns="http://www.w3.org/2000/svg">
<line y1="-0.5" x2="726.378" y2="-0.5" transform="matrix(0.762919 -0.644993 0.635864 0.773058 150.787 340.816)" stroke="url(#paint0_linear_89_104)" stroke-opacity="0.6"/>
<line y1="-0.5" x2="726.378" y2="-0.5" transform="matrix(0.762919 -0.644993 0.635864 0.773058 200.586 408.606)" stroke="url(#paint1_linear_89_104)" stroke-opacity="0.6"/>
<line y1="-0.5" x2="726.378" y2="-0.5" transform="matrix(0.762919 -0.644993 0.635864 0.773058 250.386 476.396)" stroke="url(#paint2_linear_89_104)" stroke-opacity="0.6"/>
<line y1="-0.5" x2="726.378" y2="-0.5" transform="matrix(0.762919 -0.644993 0.635864 0.773058 300.186 544.185)" stroke="url(#paint3_linear_89_104)" stroke-opacity="0.6"/>
<line y1="-0.5" x2="726.378" y2="-0.5" transform="matrix(0.762919 -0.644993 0.635864 0.773058 349.985 611.975)" stroke="url(#paint4_linear_89_104)" stroke-opacity="0.6"/>
<line y1="-0.5" x2="726.378" y2="-0.5" transform="matrix(0.762919 -0.644993 0.635864 0.773058 399.785 679.765)" stroke="url(#paint5_linear_89_104)" stroke-opacity="0.6"/>
<line y1="-0.5" x2="726.378" y2="-0.5" transform="matrix(0.762919 -0.644993 0.635864 0.773058 449.585 747.555)" stroke="url(#paint6_linear_89_104)" stroke-opacity="0.6"/>
<line y1="-0.5" x2="726.378" y2="-0.5" transform="matrix(0.762919 -0.644993 0.635864 0.773058 499.384 815.345)" stroke="url(#paint7_linear_89_104)" stroke-opacity="0.6"/>
<line y1="-0.5" x2="725.791" y2="-0.5" transform="matrix(0.788185 0.612572 -0.604567 0.798756 520.813 -61.6705)" stroke="url(#paint8_linear_89_104)" stroke-opacity="0.6"/>
<line y1="-0.5" x2="725.791" y2="-0.5" transform="matrix(0.788185 0.612572 -0.604567 0.798756 466.453 2.53612)" stroke="url(#paint9_linear_89_104)" stroke-opacity="0.6"/>
<line y1="-0.5" x2="725.791" y2="-0.5" transform="matrix(0.788185 0.612572 -0.604567 0.798756 412.093 66.7428)" stroke="url(#paint10_linear_89_104)" stroke-opacity="0.6"/>
<line y1="-0.5" x2="725.791" y2="-0.5" transform="matrix(0.788185 0.612572 -0.604567 0.798756 357.732 130.949)" stroke="url(#paint11_linear_89_104)" stroke-opacity="0.6"/>
<line y1="-0.5" x2="725.791" y2="-0.5" transform="matrix(0.788185 0.612572 -0.604567 0.798756 303.372 195.156)" stroke="url(#paint12_linear_89_104)" stroke-opacity="0.6"/>
<line y1="-0.5" x2="725.791" y2="-0.5" transform="matrix(0.788185 0.612572 -0.604567 0.798756 249.011 259.363)" stroke="url(#paint13_linear_89_104)" stroke-opacity="0.6"/>
<line x1="194.962" y1="323.177" x2="655.311" y2="687.607" stroke="url(#paint14_linear_89_104)" stroke-opacity="0.6"/>
<line x1="140.598" y1="387.38" x2="605.307" y2="747.604" stroke="url(#paint15_linear_89_104)" stroke-opacity="0.6"/>
<line y1="-0.5" x2="726.378" y2="-0.5" transform="matrix(0.762919 -0.644993 0.635864 0.773058 82.7869 287.816)" stroke="url(#paint16_linear_89_104)" stroke-opacity="0.6"/>
<line y1="-0.5" x2="726.378" y2="-0.5" transform="matrix(0.762919 -0.644993 0.635864 0.773058 132.586 355.606)" stroke="url(#paint17_linear_89_104)" stroke-opacity="0.6"/>
<line y1="-0.5" x2="726.378" y2="-0.5" transform="matrix(0.762919 -0.644993 0.635864 0.773058 182.386 423.396)" stroke="url(#paint18_linear_89_104)" stroke-opacity="0.6"/>
<line y1="-0.5" x2="726.378" y2="-0.5" transform="matrix(0.762919 -0.644993 0.635864 0.773058 232.186 491.185)" stroke="url(#paint19_linear_89_104)" stroke-opacity="0.6"/>
<line y1="-0.5" x2="726.378" y2="-0.5" transform="matrix(0.762919 -0.644993 0.635864 0.773058 281.985 558.975)" stroke="url(#paint20_linear_89_104)" stroke-opacity="0.6"/>
<line y1="-0.5" x2="726.378" y2="-0.5" transform="matrix(0.762919 -0.644993 0.635864 0.773058 331.785 626.765)" stroke="url(#paint21_linear_89_104)" stroke-opacity="0.6"/>
<line y1="-0.5" x2="726.378" y2="-0.5" transform="matrix(0.762919 -0.644993 0.635864 0.773058 381.585 694.555)" stroke="url(#paint22_linear_89_104)" stroke-opacity="0.6"/>
<line y1="-0.5" x2="726.378" y2="-0.5" transform="matrix(0.762919 -0.644993 0.635864 0.773058 431.384 762.345)" stroke="url(#paint23_linear_89_104)" stroke-opacity="0.6"/>
<line y1="-0.5" x2="725.791" y2="-0.5" transform="matrix(0.788185 0.612572 -0.604567 0.798756 452.813 -114.671)" stroke="url(#paint24_linear_89_104)" stroke-opacity="0.6"/>
<line y1="-0.5" x2="725.791" y2="-0.5" transform="matrix(0.788185 0.612572 -0.604567 0.798756 398.453 -50.4639)" stroke="url(#paint25_linear_89_104)" stroke-opacity="0.6"/>
<line y1="-0.5" x2="725.791" y2="-0.5" transform="matrix(0.788185 0.612572 -0.604567 0.798756 344.093 13.7428)" stroke="url(#paint26_linear_89_104)" stroke-opacity="0.6"/>
<line y1="-0.5" x2="725.791" y2="-0.5" transform="matrix(0.788185 0.612572 -0.604567 0.798756 289.732 77.9495)" stroke="url(#paint27_linear_89_104)" stroke-opacity="0.6"/>
<line y1="-0.5" x2="725.791" y2="-0.5" transform="matrix(0.788185 0.612572 -0.604567 0.798756 235.372 142.156)" stroke="url(#paint28_linear_89_104)" stroke-opacity="0.6"/>
<line y1="-0.5" x2="725.791" y2="-0.5" transform="matrix(0.788185 0.612572 -0.604567 0.798756 181.011 206.363)" stroke="url(#paint29_linear_89_104)" stroke-opacity="0.6"/>
<line x1="126.962" y1="270.177" x2="587.311" y2="634.607" stroke="url(#paint30_linear_89_104)" stroke-opacity="0.6"/>
<line x1="72.5976" y1="334.38" x2="537.307" y2="694.604" stroke="url(#paint31_linear_89_104)" stroke-opacity="0.6"/>
<defs>
<linearGradient id="paint0_linear_89_104" x1="363.189" y1="0" x2="363.189" y2="1" gradientUnits="userSpaceOnUse">
<stop stop-color="#368A4B"/>
<stop offset="1" stop-color="#25A645" stop-opacity="0"/>
</linearGradient>
<linearGradient id="paint1_linear_89_104" x1="363.189" y1="0" x2="363.189" y2="1" gradientUnits="userSpaceOnUse">
<stop stop-color="#368A4B"/>
<stop offset="1" stop-color="#25A645" stop-opacity="0"/>
</linearGradient>
<linearGradient id="paint2_linear_89_104" x1="363.189" y1="0" x2="363.189" y2="1" gradientUnits="userSpaceOnUse">
<stop stop-color="#368A4B"/>
<stop offset="1" stop-color="#25A645" stop-opacity="0"/>
</linearGradient>
<linearGradient id="paint3_linear_89_104" x1="363.189" y1="0" x2="363.189" y2="1" gradientUnits="userSpaceOnUse">
<stop stop-color="#368A4B"/>
<stop offset="1" stop-color="#25A645" stop-opacity="0"/>
</linearGradient>
<linearGradient id="paint4_linear_89_104" x1="363.189" y1="0" x2="363.189" y2="1" gradientUnits="userSpaceOnUse">
<stop stop-color="#368A4B"/>
<stop offset="1" stop-color="#25A645" stop-opacity="0"/>
</linearGradient>
<linearGradient id="paint5_linear_89_104" x1="363.189" y1="0" x2="363.189" y2="1" gradientUnits="userSpaceOnUse">
<stop stop-color="#368A4B"/>
<stop offset="1" stop-color="#25A645" stop-opacity="0"/>
</linearGradient>
<linearGradient id="paint6_linear_89_104" x1="363.189" y1="0" x2="363.189" y2="1" gradientUnits="userSpaceOnUse">
<stop stop-color="#368A4B"/>
<stop offset="1" stop-color="#25A645" stop-opacity="0"/>
</linearGradient>
<linearGradient id="paint7_linear_89_104" x1="363.189" y1="0" x2="363.189" y2="1" gradientUnits="userSpaceOnUse">
<stop stop-color="#368A4B"/>
<stop offset="1" stop-color="#25A645" stop-opacity="0"/>
</linearGradient>
<linearGradient id="paint8_linear_89_104" x1="362.895" y1="0" x2="362.895" y2="1" gradientUnits="userSpaceOnUse">
<stop stop-color="#368A4B"/>
<stop offset="1" stop-color="#25A645" stop-opacity="0"/>
</linearGradient>
<linearGradient id="paint9_linear_89_104" x1="362.895" y1="0" x2="362.895" y2="1" gradientUnits="userSpaceOnUse">
<stop stop-color="#368A4B"/>
<stop offset="1" stop-color="#25A645" stop-opacity="0"/>
</linearGradient>
<linearGradient id="paint10_linear_89_104" x1="362.895" y1="0" x2="362.895" y2="1" gradientUnits="userSpaceOnUse">
<stop stop-color="#368A4B"/>
<stop offset="1" stop-color="#25A645" stop-opacity="0"/>
</linearGradient>
<linearGradient id="paint11_linear_89_104" x1="362.895" y1="0" x2="362.895" y2="1" gradientUnits="userSpaceOnUse">
<stop stop-color="#368A4B"/>
<stop offset="1" stop-color="#25A645" stop-opacity="0"/>
</linearGradient>
<linearGradient id="paint12_linear_89_104" x1="362.895" y1="0" x2="362.895" y2="1" gradientUnits="userSpaceOnUse">
<stop stop-color="#368A4B"/>
<stop offset="1" stop-color="#25A645" stop-opacity="0"/>
</linearGradient>
<linearGradient id="paint13_linear_89_104" x1="362.895" y1="0" x2="362.895" y2="1" gradientUnits="userSpaceOnUse">
<stop stop-color="#368A4B"/>
<stop offset="1" stop-color="#25A645" stop-opacity="0"/>
</linearGradient>
<linearGradient id="paint14_linear_89_104" x1="424.826" y1="505.785" x2="424.204" y2="506.57" gradientUnits="userSpaceOnUse">
<stop stop-color="#368A4B"/>
<stop offset="1" stop-color="#25A645" stop-opacity="0"/>
</linearGradient>
<linearGradient id="paint15_linear_89_104" x1="372.645" y1="567.888" x2="372.032" y2="568.68" gradientUnits="userSpaceOnUse">
<stop stop-color="#368A4B"/>
<stop offset="1" stop-color="#25A645" stop-opacity="0"/>
</linearGradient>
<linearGradient id="paint16_linear_89_104" x1="363.189" y1="0" x2="363.189" y2="1" gradientUnits="userSpaceOnUse">
<stop stop-color="#368A4B"/>
<stop offset="1" stop-color="#25A645" stop-opacity="0"/>
</linearGradient>
<linearGradient id="paint17_linear_89_104" x1="363.189" y1="0" x2="363.189" y2="1" gradientUnits="userSpaceOnUse">
<stop stop-color="#368A4B"/>
<stop offset="1" stop-color="#25A645" stop-opacity="0"/>
</linearGradient>
<linearGradient id="paint18_linear_89_104" x1="363.189" y1="0" x2="363.189" y2="1" gradientUnits="userSpaceOnUse">
<stop stop-color="#368A4B"/>
<stop offset="1" stop-color="#25A645" stop-opacity="0"/>
</linearGradient>
<linearGradient id="paint19_linear_89_104" x1="363.189" y1="0" x2="363.189" y2="1" gradientUnits="userSpaceOnUse">
<stop stop-color="#368A4B"/>
<stop offset="1" stop-color="#25A645" stop-opacity="0"/>
</linearGradient>
<linearGradient id="paint20_linear_89_104" x1="363.189" y1="0" x2="363.189" y2="1" gradientUnits="userSpaceOnUse">
<stop stop-color="#368A4B"/>
<stop offset="1" stop-color="#25A645" stop-opacity="0"/>
</linearGradient>
<linearGradient id="paint21_linear_89_104" x1="363.189" y1="0" x2="363.189" y2="1" gradientUnits="userSpaceOnUse">
<stop stop-color="#368A4B"/>
<stop offset="1" stop-color="#25A645" stop-opacity="0"/>
</linearGradient>
<linearGradient id="paint22_linear_89_104" x1="363.189" y1="0" x2="363.189" y2="1" gradientUnits="userSpaceOnUse">
<stop stop-color="#368A4B"/>
<stop offset="1" stop-color="#25A645" stop-opacity="0"/>
</linearGradient>
<linearGradient id="paint23_linear_89_104" x1="363.189" y1="0" x2="363.189" y2="1" gradientUnits="userSpaceOnUse">
<stop stop-color="#368A4B"/>
<stop offset="1" stop-color="#25A645" stop-opacity="0"/>
</linearGradient>
<linearGradient id="paint24_linear_89_104" x1="362.895" y1="0" x2="362.895" y2="1" gradientUnits="userSpaceOnUse">
<stop stop-color="#368A4B"/>
<stop offset="1" stop-color="#25A645" stop-opacity="0"/>
</linearGradient>
<linearGradient id="paint25_linear_89_104" x1="362.895" y1="0" x2="362.895" y2="1" gradientUnits="userSpaceOnUse">
<stop stop-color="#368A4B"/>
<stop offset="1" stop-color="#25A645" stop-opacity="0"/>
</linearGradient>
<linearGradient id="paint26_linear_89_104" x1="362.895" y1="0" x2="362.895" y2="1" gradientUnits="userSpaceOnUse">
<stop stop-color="#368A4B"/>
<stop offset="1" stop-color="#25A645" stop-opacity="0"/>
</linearGradient>
<linearGradient id="paint27_linear_89_104" x1="362.895" y1="0" x2="362.895" y2="1" gradientUnits="userSpaceOnUse">
<stop stop-color="#368A4B"/>
<stop offset="1" stop-color="#25A645" stop-opacity="0"/>
</linearGradient>
<linearGradient id="paint28_linear_89_104" x1="362.895" y1="0" x2="362.895" y2="1" gradientUnits="userSpaceOnUse">
<stop stop-color="#368A4B"/>
<stop offset="1" stop-color="#25A645" stop-opacity="0"/>
</linearGradient>
<linearGradient id="paint29_linear_89_104" x1="362.895" y1="0" x2="362.895" y2="1" gradientUnits="userSpaceOnUse">
<stop stop-color="#368A4B"/>
<stop offset="1" stop-color="#25A645" stop-opacity="0"/>
</linearGradient>
<linearGradient id="paint30_linear_89_104" x1="356.826" y1="452.785" x2="356.204" y2="453.57" gradientUnits="userSpaceOnUse">
<stop stop-color="#368A4B"/>
<stop offset="1" stop-color="#25A645" stop-opacity="0"/>
</linearGradient>
<linearGradient id="paint31_linear_89_104" x1="304.645" y1="514.888" x2="304.032" y2="515.68" gradientUnits="userSpaceOnUse">
<stop stop-color="#368A4B"/>
<stop offset="1" stop-color="#25A645" stop-opacity="0"/>
</linearGradient>
</defs>
</svg>
