<svg width="1811" height="670" viewBox="0 0 1811 670" fill="none" xmlns="http://www.w3.org/2000/svg">
<path d="M778.838 666.16H773.814C773.369 666.16 772.943 665.983 772.629 665.669C772.315 665.354 772.139 664.928 772.139 664.483V659.453C774.138 659.434 776.065 658.7 777.57 657.384C779.076 656.067 780.062 654.255 780.349 652.274C780.636 650.293 780.206 648.275 779.137 646.584C778.067 644.893 776.428 643.641 774.517 643.054C773.494 640.7 771.727 638.746 769.489 637.493C767.25 636.24 764.663 635.756 762.124 636.116C759.585 636.475 757.233 637.659 755.43 639.484C753.626 641.31 752.47 643.677 752.14 646.223C750.543 646.606 749.142 647.562 748.203 648.911C747.264 650.26 746.853 651.907 747.047 653.539C747.241 655.171 748.028 656.675 749.257 657.766C750.486 658.856 752.072 659.456 753.714 659.453H755.389V664.483C755.389 664.928 755.212 665.354 754.898 665.669C754.584 665.983 754.158 666.16 753.714 666.16H748.689C748.245 666.16 747.819 666.336 747.505 666.651C747.191 666.965 747.014 667.392 747.014 667.837C747.014 668.281 747.191 668.708 747.505 669.022C747.819 669.337 748.245 669.513 748.689 669.513H753.714C755.047 669.513 756.325 668.983 757.267 668.04C758.209 667.097 758.739 665.817 758.739 664.483V659.453H762.089V667.837C762.089 668.281 762.265 668.708 762.579 669.022C762.893 669.337 763.32 669.513 763.764 669.513C764.208 669.513 764.634 669.337 764.948 669.022C765.262 668.708 765.439 668.281 765.439 667.837V659.453H768.789V664.483C768.789 665.817 769.318 667.097 770.26 668.04C771.203 668.983 772.481 669.513 773.814 669.513H778.838C779.283 669.513 779.709 669.337 780.023 669.022C780.337 668.708 780.513 668.281 780.513 667.837C780.513 667.392 780.337 666.965 780.023 666.651C779.709 666.336 779.283 666.16 778.838 666.16ZM753.714 656.099C752.826 656.099 751.973 655.746 751.345 655.117C750.717 654.488 750.364 653.635 750.364 652.746C750.364 651.856 750.717 651.003 751.345 650.374C751.973 649.745 752.826 649.392 753.714 649.392C754.158 649.392 754.584 649.215 754.898 648.901C755.212 648.586 755.389 648.16 755.389 647.715C755.393 645.732 756.1 643.815 757.383 642.304C758.666 640.792 760.442 639.786 762.397 639.462C764.351 639.138 766.357 639.518 768.058 640.535C769.758 641.552 771.044 643.139 771.686 645.016C771.782 645.304 771.954 645.56 772.184 645.758C772.414 645.956 772.694 646.088 772.993 646.139C774.155 646.34 775.211 646.944 775.973 647.845C776.736 648.746 777.157 649.888 777.163 651.069C777.163 652.403 776.634 653.682 775.692 654.626C774.749 655.569 773.471 656.099 772.139 656.099H753.714Z" fill="#005F00"/>
<path d="M81.1196 267.793H74.1564C73.5408 267.793 72.9505 267.549 72.5152 267.113C72.0799 266.677 71.8354 266.086 71.8354 265.47V258.499C74.6058 258.474 77.2757 257.457 79.3624 255.632C81.4492 253.808 82.815 251.296 83.2131 248.551C83.6112 245.806 83.0153 243.01 81.533 240.666C80.0508 238.323 77.78 236.588 75.1313 235.775C73.7131 232.512 71.2655 229.806 68.1636 228.069C65.0617 226.332 61.4766 225.662 57.9577 226.16C54.4388 226.659 51.1801 228.298 48.6811 230.828C46.1821 233.358 44.5806 236.638 44.122 240.166C41.9091 240.697 39.9678 242.022 38.6669 243.891C37.366 245.76 36.796 248.042 37.0652 250.304C37.3344 252.566 38.424 254.651 40.1272 256.161C41.8303 257.672 44.0283 258.504 46.3038 258.499H48.6248V265.47C48.6248 266.086 48.3803 266.677 47.945 267.113C47.5097 267.549 46.9194 267.793 46.3038 267.793H39.3406C38.725 267.793 38.1347 268.038 37.6994 268.474C37.2641 268.91 37.0196 269.501 37.0196 270.117C37.0196 270.733 37.2641 271.324 37.6994 271.76C38.1347 272.196 38.725 272.441 39.3406 272.441H46.3038C48.1505 272.441 49.9216 271.706 51.2275 270.399C52.5333 269.092 53.2669 267.319 53.2669 265.47V258.499H57.9091V270.117C57.9091 270.733 58.1536 271.324 58.5889 271.76C59.0242 272.196 59.6145 272.441 60.2301 272.441C60.8457 272.441 61.4361 272.196 61.8713 271.76C62.3066 271.324 62.5512 270.733 62.5512 270.117V258.499H67.1933V265.47C67.1933 267.319 67.9269 269.092 69.2327 270.399C70.5386 271.706 72.3097 272.441 74.1564 272.441H81.1196C81.7352 272.441 82.3255 272.196 82.7608 271.76C83.1961 271.324 83.4406 270.733 83.4406 270.117C83.4406 269.501 83.1961 268.91 82.7608 268.474C82.3255 268.038 81.7352 267.793 81.1196 267.793ZM46.3038 253.852C45.0726 253.852 43.8919 253.362 43.0213 252.491C42.1508 251.619 41.6617 250.437 41.6617 249.205C41.6617 247.972 42.1508 246.79 43.0213 245.919C43.8919 245.047 45.0726 244.558 46.3038 244.558C46.9194 244.558 47.5097 244.313 47.945 243.877C48.3803 243.441 48.6248 242.85 48.6248 242.234C48.6308 239.486 49.6096 236.829 51.3875 234.735C53.1654 232.641 55.6272 231.246 58.3355 230.797C61.0439 230.349 63.8234 230.876 66.1803 232.285C68.5372 233.694 70.3188 235.893 71.2087 238.493C71.3414 238.892 71.5798 239.248 71.8987 239.522C72.2176 239.797 72.6048 239.979 73.0191 240.05C74.6303 240.328 76.0923 241.165 77.149 242.414C78.2057 243.663 78.7896 245.245 78.7985 246.881C78.7985 248.73 78.0649 250.503 76.7591 251.81C75.4532 253.118 73.6821 253.852 71.8354 253.852H46.3038Z" fill="#005F00"/>
<path fill-rule="evenodd" clip-rule="evenodd" d="M1078.5 0H1071.37V10.1338C1070.35 9.88886 1069.31 9.77404 1068.27 9.79217C1060.81 9.79046 1056 14.1877 1056 20.9664C1056 28.0013 1060.54 31.6657 1069.25 31.6742C1072.16 31.6742 1074.85 31.418 1078.5 30.7688V0ZM1069.21 15.3357C1070.09 15.3357 1070.78 15.4211 1071.62 15.6774V26.351C1070.6 26.4792 1069.96 26.5219 1069.17 26.5219C1065.51 26.5219 1063.52 24.571 1063.52 21.0381C1063.52 17.4079 1065.61 15.3357 1069.21 15.3357Z" fill="#005F00" fill-opacity="0.6"/>
<path d="M1090.17 26.023V10.6173H1083.04V23.7288C1083.04 29.5149 1082.72 31.7135 1081.7 33.6132C1080.73 35.4701 1079.21 36.6882 1076.06 38.0651L1082.68 41C1085.82 39.5274 1087.35 38.1932 1088.51 36.08C1089.75 33.8797 1090.17 31.3274 1090.17 26.023ZM1089.46 0H1082.33V6.82138H1089.46L1089.46 0Z" fill="#005F00" fill-opacity="0.6"/>
<path fill-rule="evenodd" clip-rule="evenodd" d="M103.123 23.8921H97.1455V32.3826C96.2947 32.1773 95.4213 32.0811 94.5463 32.0963C88.3001 32.0949 84.2695 35.779 84.2695 41.4584C84.2695 47.3525 88.0696 50.4227 95.3693 50.4298C97.8068 50.4298 100.061 50.2151 103.123 49.6712V23.8921ZM95.3392 36.7409C96.0778 36.7409 96.656 36.8124 97.3545 37.0271V45.9699C96.5014 46.0772 95.9633 46.113 95.302 46.113C92.239 46.113 90.5715 44.4785 90.5715 41.5185C90.5715 38.477 92.3177 36.7409 95.3392 36.7409Z" fill="#005F00" fill-opacity="0.6"/>
<path d="M112.896 45.6951V32.7876H106.928V43.7728C106.928 48.6207 106.659 50.4627 105.804 52.0543C104.988 53.6102 103.712 54.6307 101.074 55.7843L106.62 58.2433C109.258 57.0095 110.535 55.8917 111.504 54.1211C112.543 52.2776 112.896 50.1393 112.896 45.6951ZM112.301 23.8921H106.327V29.6073H112.302L112.301 23.8921Z" fill="#005F00" fill-opacity="0.6"/>
<path d="M1084.42 333.513L1077.1 329.818L1069.06 333.827L1076.58 337.603L1084.42 333.513ZM1087.78 335.207L1095.45 339.082L1087.49 343.08L1079.96 339.301L1087.78 335.207ZM1098.03 329.872L1105.92 333.827L1098.86 337.369L1091.17 333.489L1098.03 329.872ZM1094.64 328.171L1087.54 324.61L1080.51 328.116L1087.83 331.804L1094.64 328.171ZM1089.09 358.742V368.429L1097.69 364.139L1097.68 354.444L1089.09 358.742ZM1097.68 351.062L1097.67 341.472L1089.09 345.737V355.329L1097.68 351.062ZM1108 349.266V358.992L1100.66 362.653L1100.66 352.97L1108 349.266ZM1108 345.864V336.334L1100.65 339.987L1100.66 349.598L1108 345.864ZM1086.05 345.737L1080.26 342.824V355.413C1080.26 355.413 1073.17 340.338 1072.51 338.985C1072.43 338.81 1072.08 338.618 1071.99 338.57C1070.33 337.714 1068.67 336.864 1067 336.022V358.26L1072.15 361.013V349.386C1072.15 349.386 1079.16 362.857 1079.23 363.003C1079.3 363.149 1080.01 364.57 1080.76 365.07C1081.76 365.733 1086.05 368.313 1086.05 368.313V345.737Z" fill="#004700"/>
<path d="M1029.5 155L1029.66 162.833L1024.5 159.831V171.004L1017.67 175.001V135.001L1034.66 144.833V153.667L1024.5 147.671V152.17L1029.5 155ZM999 144.831L1016 135V175L1009.16 171.002V147.669L999 153.665V144.831Z" fill="#004700" fill-opacity="0.6"/>
<path d="M1758.14 144.515L1758.25 150.199L1754.51 148.021V156.129L1749.55 159.03V130.001L1761.88 137.136V143.547L1754.51 139.196V142.461L1758.14 144.515ZM1736 137.135L1748.34 130V159.029L1743.38 156.128V139.194L1736 143.546V137.135Z" fill="#005F00" fill-opacity="0.6"/>
<path d="M1655.78 13H1660.15V43.1733H1655.78V13ZM1648.9 34.5667H1653.27V38.85H1648.9V34.5667ZM1648.9 22.8383H1653.27V31.915H1648.9V22.8383ZM1648.9 41.5H1653.27V50.5767H1648.9V41.5ZM1635 22.8267H1639.37V53H1635L1635 22.8267ZM1642.02 27.0917H1646.39V31.375H1642.03L1642.02 27.0917ZM1642.02 34.01H1646.39V43.0883H1642.03L1642.02 34.01ZM1642.02 15.365H1646.39V24.4417H1642.03L1642.02 15.365Z" fill="#005F00" fill-opacity="0.6"/>
<path d="M560.409 108H564.072V133.28H560.409V108ZM554.647 126.069H558.31V129.658H554.647V126.069ZM554.647 116.243H558.31V123.848H554.647V116.243ZM554.647 131.878H558.31V139.483H554.647V131.878ZM543.001 116.233H546.663V141.513H543L543.001 116.233ZM548.884 119.806H552.547V123.395H548.886L548.884 119.806ZM548.884 125.603H552.547V133.209H548.886L548.884 125.603ZM548.884 109.981H552.547V117.586H548.886L548.884 109.981Z" fill="#005F00"/>
<path d="M1416.79 581H1422.85V622.812H1416.79V581ZM1407.26 610.886H1413.32V616.821H1407.26V610.886ZM1407.26 594.633H1413.32V607.211H1407.26V594.633ZM1407.26 620.493H1413.32V633.071H1407.26V620.493ZM1388 594.617H1394.06V636.429H1388L1388 594.617ZM1397.73 600.527H1403.79V606.463H1397.73L1397.73 600.527ZM1397.73 610.114H1403.79V622.694H1397.73L1397.73 610.114ZM1397.73 584.277H1403.79V596.855H1397.73L1397.73 584.277Z" fill="#005F00" fill-opacity="0.6"/>
<path d="M1786.87 414.231L1771.23 429.869L1773.21 431.849L1788.85 416.211L1786.87 414.231ZM1771.23 435.808L1786.87 451.449L1788.85 449.466L1773.21 433.828L1771.23 435.808ZM1792.81 451.446L1808.45 435.811L1806.47 433.828L1790.83 449.466L1792.81 451.446ZM1808.45 429.866L1792.81 414.231L1790.83 416.211L1806.47 431.849L1808.45 429.869V429.866ZM1808.45 435.811C1808.84 435.421 1809.15 434.955 1809.36 434.445C1809.57 433.935 1809.68 433.389 1809.68 432.837C1809.68 432.285 1809.57 431.739 1809.36 431.229C1809.15 430.719 1808.84 430.256 1808.45 429.866L1806.47 431.846C1806.6 431.976 1806.7 432.13 1806.77 432.301C1806.84 432.471 1806.88 432.653 1806.88 432.837C1806.88 433.021 1806.84 433.204 1806.77 433.374C1806.7 433.544 1806.6 433.698 1806.47 433.828L1808.45 435.811ZM1786.87 451.449C1787.26 451.839 1787.73 452.149 1788.23 452.36C1788.74 452.571 1789.29 452.68 1789.84 452.68C1790.39 452.68 1790.94 452.571 1791.45 452.36C1791.96 452.149 1792.42 451.839 1792.81 451.449L1790.83 449.469C1790.7 449.599 1790.55 449.703 1790.38 449.773C1790.21 449.844 1790.03 449.88 1789.84 449.88C1789.66 449.88 1789.48 449.844 1789.31 449.773C1789.14 449.703 1788.98 449.599 1788.85 449.469L1786.87 451.449ZM1771.23 429.869C1770.84 430.259 1770.53 430.725 1770.32 431.235C1770.11 431.745 1770 432.291 1770 432.843C1770 433.394 1770.11 433.941 1770.32 434.451C1770.53 434.96 1770.84 435.423 1771.23 435.814L1773.21 433.831C1773.08 433.701 1772.98 433.549 1772.91 433.379C1772.84 433.209 1772.8 433.027 1772.8 432.843C1772.8 432.659 1772.84 432.476 1772.91 432.306C1772.98 432.136 1773.08 431.979 1773.21 431.849L1771.23 429.869ZM1788.85 416.214C1788.98 416.083 1789.13 415.98 1789.3 415.909C1789.47 415.839 1789.66 415.802 1789.84 415.802C1790.02 415.802 1790.21 415.839 1790.38 415.909C1790.55 415.98 1790.7 416.083 1790.83 416.214L1792.81 414.231C1792.42 413.841 1791.95 413.531 1791.44 413.32C1790.94 413.109 1790.39 413 1789.84 413C1789.29 413 1788.74 413.109 1788.23 413.32C1787.72 413.531 1787.26 413.841 1786.87 414.231L1788.85 416.211L1788.85 416.214ZM1783.25 419.834L1786.05 422.634L1788.03 420.652L1785.23 417.852L1783.25 419.834ZM1789.84 425.84C1789.47 425.84 1789.11 425.692 1788.85 425.43C1788.59 425.167 1788.44 424.811 1788.44 424.44H1785.64C1785.64 425.554 1786.08 426.622 1786.87 427.41C1787.66 428.197 1788.73 428.64 1789.84 428.64V425.84ZM1791.24 424.44C1791.24 424.811 1791.09 425.167 1790.83 425.43C1790.57 425.692 1790.21 425.84 1789.84 425.84V428.64C1790.95 428.64 1792.02 428.197 1792.81 427.41C1793.6 426.622 1794.04 425.554 1794.04 424.44H1791.24ZM1789.84 423.04C1790.21 423.04 1790.57 423.187 1790.83 423.45C1791.09 423.713 1791.24 424.069 1791.24 424.44H1794.04C1794.04 423.326 1793.6 422.258 1792.81 421.47C1792.02 420.682 1790.95 420.24 1789.84 420.24V423.04ZM1789.84 420.24C1788.73 420.24 1787.66 420.682 1786.87 421.47C1786.08 422.258 1785.64 423.326 1785.64 424.44H1788.44C1788.44 424.069 1788.59 423.713 1788.85 423.45C1789.11 423.187 1789.47 423.04 1789.84 423.04V420.24ZM1791.65 428.231L1795.85 432.431L1797.83 430.449L1793.63 426.249L1791.65 428.231ZM1798.24 434.24C1797.87 434.24 1797.51 434.092 1797.25 433.83C1796.99 433.567 1796.84 433.211 1796.84 432.84H1794.04C1794.04 433.954 1794.48 435.022 1795.27 435.81C1796.06 436.597 1797.13 437.04 1798.24 437.04V434.24ZM1799.64 432.84C1799.64 433.211 1799.49 433.567 1799.23 433.83C1798.97 434.092 1798.61 434.24 1798.24 434.24V437.04C1799.35 437.04 1800.42 436.597 1801.21 435.81C1802 435.022 1802.44 433.954 1802.44 432.84H1799.64ZM1798.24 431.44C1798.61 431.44 1798.97 431.587 1799.23 431.85C1799.49 432.113 1799.64 432.469 1799.64 432.84H1802.44C1802.44 431.726 1802 430.658 1801.21 429.87C1800.42 429.082 1799.35 428.64 1798.24 428.64V431.44ZM1798.24 428.64C1797.13 428.64 1796.06 429.082 1795.27 429.87C1794.48 430.658 1794.04 431.726 1794.04 432.84H1796.84C1796.84 432.469 1796.99 432.113 1797.25 431.85C1797.51 431.587 1797.87 431.44 1798.24 431.44V428.64ZM1788.44 427.24V438.44H1791.24V427.24H1788.44ZM1789.84 442.64C1789.47 442.64 1789.11 442.492 1788.85 442.23C1788.59 441.967 1788.44 441.611 1788.44 441.24H1785.64C1785.64 442.354 1786.08 443.422 1786.87 444.21C1787.66 444.997 1788.73 445.44 1789.84 445.44V442.64ZM1791.24 441.24C1791.24 441.611 1791.09 441.967 1790.83 442.23C1790.57 442.492 1790.21 442.64 1789.84 442.64V445.44C1790.95 445.44 1792.02 444.997 1792.81 444.21C1793.6 443.422 1794.04 442.354 1794.04 441.24H1791.24ZM1789.84 439.84C1790.21 439.84 1790.57 439.987 1790.83 440.25C1791.09 440.513 1791.24 440.869 1791.24 441.24H1794.04C1794.04 440.126 1793.6 439.058 1792.81 438.27C1792.02 437.482 1790.95 437.04 1789.84 437.04V439.84ZM1789.84 437.04C1788.73 437.04 1787.66 437.482 1786.87 438.27C1786.08 439.058 1785.64 440.126 1785.64 441.24H1788.44C1788.44 440.869 1788.59 440.513 1788.85 440.25C1789.11 439.987 1789.47 439.84 1789.84 439.84V437.04Z" fill="#005F00" fill-opacity="0.6"/>
<path d="M399.136 25.0315L386.031 38.1335L387.69 39.7921L400.792 26.69L399.136 25.0315ZM386.031 43.1092L399.134 56.2136L400.792 54.5527L387.69 41.4507L386.031 43.1092ZM404.112 56.2113L417.214 43.1116L415.555 41.4507L402.453 54.5527L404.112 56.2113ZM417.214 38.1312L404.112 25.0315L402.453 26.69L415.555 39.7921L417.214 38.1335V38.1312ZM417.214 43.1116C417.541 42.7848 417.8 42.3944 417.977 41.9674C418.154 41.5403 418.245 41.0825 418.245 40.6202C418.245 40.1579 418.154 39.7001 417.977 39.2731C417.8 38.846 417.541 38.458 417.214 38.1312L415.555 39.7897C415.664 39.8987 415.751 40.0281 415.81 40.1706C415.869 40.3131 415.9 40.4659 415.9 40.6202C415.9 40.7745 415.869 40.9273 415.81 41.0698C415.751 41.2123 415.664 41.3417 415.555 41.4507L417.214 43.1116ZM399.134 56.2136C399.46 56.5406 399.851 56.8 400.278 56.977C400.705 57.154 401.163 57.2451 401.625 57.2451C402.087 57.2451 402.545 57.154 402.972 56.977C403.399 56.8 403.787 56.5406 404.114 56.2136L402.453 54.5551C402.344 54.6643 402.217 54.751 402.074 54.8101C401.932 54.8692 401.779 54.8997 401.625 54.8997C401.471 54.8997 401.318 54.8692 401.175 54.8101C401.033 54.751 400.903 54.6643 400.794 54.5551L399.134 56.2136ZM386.031 38.1335C385.704 38.4603 385.445 38.8507 385.268 39.2777C385.091 39.7048 385 40.1626 385 40.6249C385 41.0872 385.091 41.545 385.268 41.972C385.445 42.3991 385.704 42.7871 386.031 43.1139L387.69 41.453C387.581 41.3441 387.494 41.217 387.435 41.0745C387.376 40.932 387.345 40.7792 387.345 40.6249C387.345 40.4706 387.376 40.3178 387.435 40.1753C387.494 40.0328 387.581 39.901 387.69 39.7921L386.031 38.1335ZM400.792 26.6924C400.901 26.5831 401.03 26.4965 401.173 26.4374C401.315 26.3782 401.468 26.3478 401.623 26.3478C401.777 26.3478 401.93 26.3782 402.072 26.4374C402.215 26.4965 402.344 26.5831 402.453 26.6924L404.112 25.0315C403.785 24.7045 403.394 24.4451 402.967 24.2681C402.54 24.0911 402.083 24 401.62 24C401.158 24 400.7 24.0911 400.273 24.2681C399.846 24.4451 399.458 24.7045 399.131 25.0315L400.79 26.69L400.792 26.6924ZM396.1 29.7257L398.446 32.0716L400.107 30.4107L397.761 28.0648L396.1 29.7257ZM401.623 34.7577C401.311 34.7577 401.013 34.6341 400.793 34.4142C400.573 34.1942 400.45 33.8958 400.45 33.5847H398.104C398.104 34.518 398.474 35.4131 399.134 36.073C399.794 36.7329 400.689 37.1036 401.623 37.1036V34.7577ZM402.796 33.5847C402.796 33.8958 402.672 34.1942 402.452 34.4142C402.232 34.6341 401.934 34.7577 401.623 34.7577V37.1036C402.556 37.1036 403.451 36.7329 404.111 36.073C404.771 35.4131 405.141 34.518 405.141 33.5847H402.796ZM401.623 32.4118C401.934 32.4118 402.232 32.5354 402.452 32.7553C402.672 32.9753 402.796 33.2737 402.796 33.5847H405.141C405.141 32.6515 404.771 31.7564 404.111 31.0965C403.451 30.4366 402.556 30.0658 401.623 30.0658V32.4118ZM401.623 30.0658C400.689 30.0658 399.794 30.4366 399.134 31.0965C398.474 31.7564 398.104 32.6515 398.104 33.5847H400.45C400.45 33.2737 400.573 32.9753 400.793 32.7553C401.013 32.5354 401.311 32.4118 401.623 32.4118V30.0658ZM403.138 36.7611L406.657 40.28L408.316 38.6191L404.797 35.1002L403.138 36.7611ZM408.66 41.7955C408.349 41.7955 408.051 41.6719 407.831 41.452C407.611 41.232 407.487 40.9336 407.487 40.6225H405.141C405.141 41.5558 405.512 42.4509 406.172 43.1108C406.832 43.7707 407.727 44.1415 408.66 44.1415V41.7955ZM409.833 40.6225C409.833 40.9336 409.71 41.232 409.49 41.452C409.27 41.6719 408.971 41.7955 408.66 41.7955V44.1415C409.594 44.1415 410.489 43.7707 411.149 43.1108C411.809 42.4509 412.179 41.5558 412.179 40.6225H409.833ZM408.66 39.4496C408.971 39.4496 409.27 39.5732 409.49 39.7931C409.71 40.0131 409.833 40.3115 409.833 40.6225H412.179C412.179 39.6893 411.809 38.7942 411.149 38.1343C410.489 37.4744 409.594 37.1036 408.66 37.1036V39.4496ZM408.66 37.1036C407.727 37.1036 406.832 37.4744 406.172 38.1343C405.512 38.7942 405.141 39.6893 405.141 40.6225H407.487C407.487 40.3115 407.611 40.0131 407.831 39.7931C408.051 39.5732 408.349 39.4496 408.66 39.4496V37.1036ZM400.45 35.9307V45.3144H402.796V35.9307H400.45ZM401.623 48.8333C401.311 48.8333 401.013 48.7097 400.793 48.4898C400.573 48.2698 400.45 47.9714 400.45 47.6604H398.104C398.104 48.5936 398.474 49.4887 399.134 50.1486C399.794 50.8085 400.689 51.1793 401.623 51.1793V48.8333ZM402.796 47.6604C402.796 47.9714 402.672 48.2698 402.452 48.4898C402.232 48.7097 401.934 48.8333 401.623 48.8333V51.1793C402.556 51.1793 403.451 50.8085 404.111 50.1486C404.771 49.4887 405.141 48.5936 405.141 47.6604H402.796ZM401.623 46.4874C401.934 46.4874 402.232 46.611 402.452 46.8309C402.672 47.0509 402.796 47.3493 402.796 47.6604H405.141C405.141 46.7271 404.771 45.832 404.111 45.1721C403.451 44.5122 402.556 44.1415 401.623 44.1415V46.4874ZM401.623 44.1415C400.689 44.1415 399.794 44.5122 399.134 45.1721C398.474 45.832 398.104 46.7271 398.104 47.6604H400.45C400.45 47.3493 400.573 47.0509 400.793 46.8309C401.013 46.611 401.311 46.4874 401.623 46.4874V44.1415Z" fill="#005F00" fill-opacity="0.6"/>
<path d="M291.534 528.86L273.375 547.015L275.673 549.314L293.829 531.158L291.534 528.86ZM273.375 553.911L291.531 572.07L293.829 569.768L275.673 551.612L273.375 553.911ZM298.429 572.066L316.585 553.914L314.287 551.612L296.131 569.768L298.429 572.066ZM316.585 547.012L298.429 528.86L296.131 531.158L314.287 549.314L316.585 547.015V547.012ZM316.585 553.914C317.038 553.461 317.397 552.92 317.643 552.328C317.888 551.736 318.014 551.102 318.014 550.461C318.014 549.821 317.888 549.186 317.643 548.595C317.397 548.003 317.038 547.465 316.585 547.012L314.287 549.311C314.438 549.462 314.558 549.641 314.64 549.838C314.722 550.036 314.764 550.248 314.764 550.461C314.764 550.675 314.722 550.887 314.64 551.084C314.558 551.282 314.438 551.461 314.287 551.612L316.585 553.914ZM291.531 572.07C291.983 572.523 292.524 572.882 293.116 573.128C293.708 573.373 294.342 573.499 294.983 573.499C295.624 573.499 296.258 573.373 296.85 573.128C297.442 572.882 297.979 572.523 298.432 572.07L296.131 569.771C295.98 569.923 295.803 570.043 295.606 570.125C295.409 570.207 295.197 570.249 294.983 570.249C294.769 570.249 294.558 570.207 294.36 570.125C294.163 570.043 293.983 569.923 293.832 569.771L291.531 572.07ZM273.375 547.015C272.922 547.468 272.562 548.009 272.317 548.601C272.072 549.193 271.945 549.827 271.945 550.468C271.945 551.108 272.072 551.743 272.317 552.335C272.562 552.926 272.922 553.464 273.375 553.917L275.673 551.615C275.522 551.464 275.402 551.288 275.32 551.091C275.238 550.893 275.195 550.682 275.195 550.468C275.195 550.254 275.238 550.042 275.32 549.845C275.402 549.647 275.522 549.465 275.673 549.314L273.375 547.015ZM293.829 531.161C293.98 531.01 294.159 530.89 294.357 530.808C294.554 530.726 294.766 530.684 294.98 530.684C295.194 530.684 295.405 530.726 295.603 530.808C295.8 530.89 295.98 531.01 296.131 531.161L298.429 528.86C297.976 528.406 297.435 528.047 296.843 527.802C296.251 527.556 295.617 527.43 294.977 527.43C294.336 527.43 293.702 527.556 293.11 527.802C292.518 528.047 291.98 528.406 291.527 528.86L293.826 531.158L293.829 531.161ZM287.327 535.364L290.578 538.615L292.88 536.314L289.629 533.063L287.327 535.364ZM294.98 542.338C294.549 542.338 294.135 542.166 293.83 541.861C293.526 541.557 293.354 541.143 293.354 540.712H290.103C290.103 542.005 290.617 543.246 291.532 544.16C292.446 545.075 293.686 545.588 294.98 545.588V542.338ZM296.605 540.712C296.605 541.143 296.434 541.557 296.129 541.861C295.824 542.166 295.411 542.338 294.98 542.338V545.588C296.273 545.588 297.513 545.075 298.428 544.16C299.342 543.246 299.856 542.005 299.856 540.712H296.605ZM294.98 539.087C295.411 539.087 295.824 539.258 296.129 539.563C296.434 539.868 296.605 540.281 296.605 540.712H299.856C299.856 539.419 299.342 538.179 298.428 537.264C297.513 536.35 296.273 535.836 294.98 535.836V539.087ZM294.98 535.836C293.686 535.836 292.446 536.35 291.532 537.264C290.617 538.179 290.103 539.419 290.103 540.712H293.354C293.354 540.281 293.526 539.868 293.83 539.563C294.135 539.258 294.549 539.087 294.98 539.087V535.836ZM297.08 545.114L301.956 549.99L304.254 547.688L299.378 542.812L297.08 545.114ZM304.732 552.09C304.301 552.09 303.888 551.919 303.583 551.614C303.278 551.309 303.107 550.896 303.107 550.465H299.856C299.856 551.758 300.37 552.998 301.284 553.913C302.199 554.827 303.439 555.341 304.732 555.341V552.09ZM306.358 550.465C306.358 550.896 306.186 551.309 305.882 551.614C305.577 551.919 305.163 552.09 304.732 552.09V555.341C306.026 555.341 307.266 554.827 308.18 553.913C309.095 552.998 309.609 551.758 309.609 550.465H306.358ZM304.732 548.839C305.163 548.839 305.577 549.01 305.882 549.315C306.186 549.62 306.358 550.034 306.358 550.465H309.609C309.609 549.171 309.095 547.931 308.18 547.017C307.266 546.102 306.026 545.588 304.732 545.588V548.839ZM304.732 545.588C303.439 545.588 302.199 546.102 301.284 547.017C300.37 547.931 299.856 549.171 299.856 550.465H303.107C303.107 550.034 303.278 549.62 303.583 549.315C303.888 549.01 304.301 548.839 304.732 548.839V545.588ZM293.354 543.963V556.966H296.605V543.963H293.354ZM294.98 561.843C294.549 561.843 294.135 561.671 293.83 561.366C293.526 561.062 293.354 560.648 293.354 560.217H290.103C290.103 561.51 290.617 562.751 291.532 563.665C292.446 564.58 293.686 565.093 294.98 565.093V561.843ZM296.605 560.217C296.605 560.648 296.434 561.062 296.129 561.366C295.824 561.671 295.411 561.843 294.98 561.843V565.093C296.273 565.093 297.513 564.58 298.428 563.665C299.342 562.751 299.856 561.51 299.856 560.217H296.605ZM294.98 558.592C295.411 558.592 295.824 558.763 296.129 559.068C296.434 559.373 296.605 559.786 296.605 560.217H299.856C299.856 558.924 299.342 557.684 298.428 556.769C297.513 555.855 296.273 555.341 294.98 555.341V558.592ZM294.98 555.341C293.686 555.341 292.446 555.855 291.532 556.769C290.617 557.684 290.103 558.924 290.103 560.217H293.354C293.354 559.786 293.526 559.373 293.83 559.068C294.135 558.763 294.549 558.592 294.98 558.592V555.341Z" fill="#004700"/>
<path d="M1471.24 33.8934L1459.89 45.2423L1461.33 46.679L1472.68 35.3301L1471.24 33.8934ZM1459.89 49.5523L1471.24 60.9032L1472.68 59.4645L1461.33 48.1156L1459.89 49.5523ZM1475.55 60.9012L1486.9 49.5543L1485.47 48.1156L1474.12 59.4645L1475.55 60.9012ZM1486.9 45.2403L1475.55 33.8934L1474.12 35.3301L1485.47 46.679L1486.9 45.2423V45.2403ZM1486.9 49.5543C1487.19 49.2713 1487.41 48.9331 1487.56 48.5632C1487.72 48.1933 1487.8 47.7967 1487.8 47.3963C1487.8 46.9959 1487.72 46.5993 1487.56 46.2294C1487.41 45.8595 1487.19 45.5234 1486.9 45.2403L1485.47 46.677C1485.56 46.7713 1485.64 46.8835 1485.69 47.0069C1485.74 47.1303 1485.77 47.2627 1485.77 47.3963C1485.77 47.5299 1485.74 47.6623 1485.69 47.7857C1485.64 47.9091 1485.56 48.0213 1485.47 48.1156L1486.9 49.5543ZM1471.24 60.9032C1471.53 61.1865 1471.86 61.4112 1472.23 61.5645C1472.6 61.7178 1473 61.7967 1473.4 61.7967C1473.8 61.7967 1474.2 61.7178 1474.57 61.5645C1474.94 61.4112 1475.27 61.1865 1475.56 60.9032L1474.12 59.4666C1474.02 59.5612 1473.91 59.6363 1473.79 59.6875C1473.67 59.7387 1473.53 59.7651 1473.4 59.7651C1473.27 59.7651 1473.13 59.7387 1473.01 59.6875C1472.89 59.6363 1472.78 59.5612 1472.68 59.4666L1471.24 60.9032ZM1459.89 45.2423C1459.61 45.5254 1459.39 45.8635 1459.23 46.2335C1459.08 46.6034 1459 46.9999 1459 47.4004C1459 47.8008 1459.08 48.1973 1459.23 48.5673C1459.39 48.9372 1459.61 49.2733 1459.89 49.5564L1461.33 48.1177C1461.24 48.0233 1461.16 47.9132 1461.11 47.7898C1461.06 47.6663 1461.03 47.534 1461.03 47.4004C1461.03 47.2667 1461.06 47.1344 1461.11 47.011C1461.16 46.8875 1461.24 46.7734 1461.33 46.679L1459.89 45.2423ZM1472.68 35.3321C1472.77 35.2375 1472.89 35.1624 1473.01 35.1112C1473.13 35.06 1473.26 35.0336 1473.4 35.0336C1473.53 35.0336 1473.66 35.06 1473.79 35.1112C1473.91 35.1624 1474.02 35.2375 1474.12 35.3321L1475.55 33.8934C1475.27 33.6102 1474.93 33.3855 1474.56 33.2322C1474.19 33.0789 1473.8 33 1473.4 33C1473 33 1472.6 33.0789 1472.23 33.2322C1471.86 33.3855 1471.52 33.6102 1471.24 33.8934L1472.68 35.3301L1472.68 35.3321ZM1468.61 37.9595L1470.65 39.9916L1472.09 38.5529L1470.05 36.5209L1468.61 37.9595ZM1473.4 42.3183C1473.13 42.3183 1472.87 42.2112 1472.68 42.0207C1472.49 41.8301 1472.38 41.5717 1472.38 41.3022H1470.35C1470.35 42.1106 1470.67 42.8859 1471.24 43.4575C1471.81 44.0292 1472.59 44.3503 1473.4 44.3503V42.3183ZM1474.41 41.3022C1474.41 41.5717 1474.31 41.8301 1474.12 42.0207C1473.93 42.2112 1473.67 42.3183 1473.4 42.3183V44.3503C1474.21 44.3503 1474.98 44.0292 1475.55 43.4575C1476.13 42.8859 1476.45 42.1106 1476.45 41.3022H1474.41ZM1473.4 40.2862C1473.67 40.2862 1473.93 40.3933 1474.12 40.5838C1474.31 40.7743 1474.41 41.0328 1474.41 41.3022H1476.45C1476.45 40.4938 1476.13 39.7186 1475.55 39.1469C1474.98 38.5753 1474.21 38.2542 1473.4 38.2542V40.2862ZM1473.4 38.2542C1472.59 38.2542 1471.81 38.5753 1471.24 39.1469C1470.67 39.7186 1470.35 40.4938 1470.35 41.3022H1472.38C1472.38 41.0328 1472.49 40.7743 1472.68 40.5838C1472.87 40.3933 1473.13 40.2862 1473.4 40.2862V38.2542ZM1474.71 44.0536L1477.76 47.1017L1479.2 45.663L1476.15 42.6149L1474.71 44.0536ZM1479.49 48.4143C1479.22 48.4143 1478.97 48.3073 1478.78 48.1168C1478.59 47.9262 1478.48 47.6678 1478.48 47.3983H1476.45C1476.45 48.2067 1476.77 48.982 1477.34 49.5536C1477.91 50.1252 1478.69 50.4464 1479.49 50.4464V48.4143ZM1480.51 47.3983C1480.51 47.6678 1480.4 47.9262 1480.21 48.1168C1480.02 48.3073 1479.76 48.4143 1479.49 48.4143V50.4464C1480.3 50.4464 1481.08 50.1252 1481.65 49.5536C1482.22 48.982 1482.54 48.2067 1482.54 47.3983H1480.51ZM1479.49 46.3823C1479.76 46.3823 1480.02 46.4894 1480.21 46.6799C1480.4 46.8704 1480.51 47.1289 1480.51 47.3983H1482.54C1482.54 46.5899 1482.22 45.8147 1481.65 45.243C1481.08 44.6714 1480.3 44.3503 1479.49 44.3503V46.3823ZM1479.49 44.3503C1478.69 44.3503 1477.91 44.6714 1477.34 45.243C1476.77 45.8147 1476.45 46.5899 1476.45 47.3983H1478.48C1478.48 47.1289 1478.59 46.8704 1478.78 46.6799C1478.97 46.4894 1479.22 46.3823 1479.49 46.3823V44.3503ZM1472.38 43.3343V51.4624H1474.41V43.3343H1472.38ZM1473.4 54.5104C1473.13 54.5104 1472.87 54.4034 1472.68 54.2129C1472.49 54.0223 1472.38 53.7639 1472.38 53.4944H1470.35C1470.35 54.3028 1470.67 55.0781 1471.24 55.6497C1471.81 56.2213 1472.59 56.5425 1473.4 56.5425V54.5104ZM1474.41 53.4944C1474.41 53.7639 1474.31 54.0223 1474.12 54.2129C1473.93 54.4034 1473.67 54.5104 1473.4 54.5104V56.5425C1474.21 56.5425 1474.98 56.2213 1475.55 55.6497C1476.13 55.0781 1476.45 54.3028 1476.45 53.4944H1474.41ZM1473.4 52.4784C1473.67 52.4784 1473.93 52.5855 1474.12 52.776C1474.31 52.9665 1474.41 53.225 1474.41 53.4944H1476.45C1476.45 52.686 1476.13 51.9108 1475.55 51.3391C1474.98 50.7675 1474.21 50.4464 1473.4 50.4464V52.4784ZM1473.4 50.4464C1472.59 50.4464 1471.81 50.7675 1471.24 51.3391C1470.67 51.9108 1470.35 52.686 1470.35 53.4944H1472.38C1472.38 53.225 1472.49 52.9665 1472.68 52.776C1472.87 52.5855 1473.13 52.4784 1473.4 52.4784V50.4464Z" fill="#005F00"/>
<mask id="mask0_567_2" style="mask-type:luminance" maskUnits="userSpaceOnUse" x="1217" y="111" width="39" height="39">
<path d="M1217 111H1255.43V149.429H1217V111Z" fill="white"/>
</mask>
<g mask="url(#mask0_567_2)">
<path d="M1236.08 111C1226.32 111 1226.93 115.253 1226.93 115.253L1226.94 119.659H1236.25V120.982H1223.24C1223.24 120.982 1217 120.269 1217 130.165C1217 140.061 1222.45 139.708 1222.45 139.708H1225.7V135.118C1225.7 135.118 1225.52 129.641 1231.06 129.641H1240.3C1240.3 129.641 1245.48 129.725 1245.48 124.601V116.127C1245.48 116.127 1246.27 111 1236.08 111ZM1230.94 113.962C1231.87 113.962 1232.62 114.715 1232.62 115.647C1232.62 116.577 1231.87 117.33 1230.94 117.33C1230.02 117.33 1229.27 116.577 1229.27 115.647C1229.27 114.715 1230.02 113.962 1230.94 113.962Z" fill="#005F00" fill-opacity="0.6"/>
<path d="M1236.35 149.429C1246.11 149.429 1245.5 145.177 1245.5 145.177L1245.49 140.77H1236.18V139.447H1249.18C1249.18 139.447 1255.43 140.16 1255.43 130.264C1255.43 120.369 1249.98 120.721 1249.98 120.721H1246.73V125.312C1246.73 125.312 1246.9 130.788 1241.36 130.788H1232.13C1232.13 130.788 1226.95 130.705 1226.95 135.829V144.302C1226.95 144.302 1226.16 149.429 1236.35 149.429ZM1241.49 146.467C1240.56 146.467 1239.81 145.715 1239.81 144.783C1239.81 143.852 1240.56 143.1 1241.49 143.1C1242.41 143.1 1243.16 143.852 1243.16 144.783C1243.16 145.715 1242.41 146.467 1241.49 146.467Z" fill="#005F00" fill-opacity="0.6"/>
</g>
<path d="M20.1562 644.488C22.0875 644.488 23.6625 646.063 23.6625 648.032C23.6625 649.907 22.0875 651.501 20.1562 651.501C18.225 651.501 16.65 649.907 16.65 648.032C16.65 646.063 18.225 644.488 20.1562 644.488ZM11.475 663.032C12.6562 663.744 15.2438 662.657 18.225 659.844C17.25 658.738 16.2938 657.538 15.3938 656.282C13.8828 656.137 12.3806 655.912 10.8938 655.607C9.9375 659.619 10.2937 662.376 11.475 663.032ZM12.8062 652.269L12.2625 651.313C12.0562 651.857 11.85 652.401 11.7188 652.926C12.225 653.038 12.7875 653.132 13.3688 653.226L12.8062 652.269ZM25.0688 650.844L26.5875 648.032L25.0688 645.219C24.5063 644.226 23.9062 643.344 23.3625 642.463C22.35 642.407 21.2812 642.407 20.1562 642.407C19.0312 642.407 17.9625 642.407 16.95 642.463C16.4062 643.344 15.8063 644.226 15.2438 645.219L13.725 648.032L15.2438 650.844C15.8063 651.838 16.4062 652.719 16.95 653.601C17.9625 653.657 19.0312 653.657 20.1562 653.657C21.2812 653.657 22.35 653.657 23.3625 653.601C23.9062 652.719 24.5063 651.838 25.0688 650.844ZM20.1562 638.244C19.8 638.657 19.425 639.088 19.05 639.594H21.2625C20.8875 639.088 20.5125 638.657 20.1562 638.244ZM20.1562 657.819C20.5125 657.407 20.8875 656.976 21.2625 656.469H19.05C19.425 656.976 19.8 657.407 20.1562 657.819ZM28.8188 633.032C27.6563 632.319 25.0688 633.407 22.0875 636.219C23.0625 637.326 24.0187 638.526 24.9188 639.782C26.4562 639.932 27.975 640.157 29.4188 640.457C30.375 636.444 30.0188 633.688 28.8188 633.032ZM27.5063 643.794L28.05 644.751C28.2562 644.207 28.4625 643.663 28.5938 643.138C28.0875 643.026 27.525 642.932 26.9438 642.838L27.5063 643.794ZM30.225 630.576C32.9813 632.151 33.2812 636.294 32.1187 641.132C36.8812 642.538 40.3125 644.863 40.3125 648.032C40.3125 651.201 36.8812 653.526 32.1187 654.932C33.2812 659.769 32.9813 663.913 30.225 665.488C27.4875 667.063 23.7563 665.263 20.1562 661.832C16.5562 665.263 12.825 667.063 10.0687 665.488C7.33125 663.913 7.03125 659.769 8.19375 654.932C3.43125 653.526 0 651.201 0 648.032C0 644.863 3.43125 642.538 8.19375 641.132C7.03125 636.294 7.33125 632.151 10.0687 630.576C12.825 629.001 16.5562 630.801 20.1562 634.232C23.7563 630.801 27.4875 629.001 30.225 630.576ZM29.6812 648.032C30.3188 649.438 30.8812 650.844 31.35 652.269C35.2875 651.088 37.5 649.401 37.5 648.032C37.5 646.663 35.2875 644.976 31.35 643.794C30.8812 645.219 30.3188 646.626 29.6812 648.032ZM10.6313 648.032C9.99375 646.626 9.43125 645.219 8.9625 643.794C5.025 644.976 2.8125 646.663 2.8125 648.032C2.8125 649.401 5.025 651.088 8.9625 652.269C9.43125 650.844 9.99375 649.438 10.6313 648.032ZM27.5063 652.269L26.9438 653.226C27.525 653.132 28.0875 653.038 28.5938 652.926C28.4625 652.401 28.2562 651.857 28.05 651.313L27.5063 652.269ZM22.0875 659.844C25.0688 662.657 27.6563 663.744 28.8188 663.032C30.0188 662.376 30.375 659.619 29.4188 655.607C27.975 655.907 26.4562 656.132 24.9188 656.282C24.0187 657.538 23.0625 658.738 22.0875 659.844ZM12.8062 643.794L13.3688 642.838C12.7875 642.932 12.225 643.026 11.7188 643.138C11.85 643.663 12.0562 644.207 12.2625 644.751L12.8062 643.794ZM18.225 636.219C15.2438 633.407 12.6562 632.319 11.475 633.032C10.2937 633.688 9.9375 636.444 10.8938 640.457C12.3806 640.152 13.8828 639.927 15.3938 639.782C16.2938 638.526 17.25 637.326 18.225 636.219Z" fill="#005F00" fill-opacity="0.6"/>
<path d="M981.888 570.139C983.506 570.139 984.825 571.458 984.825 573.108C984.825 574.679 983.506 576.014 981.888 576.014C980.27 576.014 978.95 574.679 978.95 573.108C978.95 571.458 980.27 570.139 981.888 570.139ZM974.614 585.675C975.604 586.272 977.772 585.361 980.27 583.005C979.453 582.078 978.651 581.072 977.897 580.02C976.631 579.899 975.373 579.71 974.127 579.454C973.326 582.816 973.624 585.125 974.614 585.675ZM975.73 576.658L975.274 575.857C975.101 576.312 974.928 576.768 974.818 577.208C975.243 577.302 975.714 577.381 976.201 577.459L975.73 576.658ZM986.003 575.464L987.276 573.108L986.003 570.751C985.532 569.919 985.029 569.18 984.574 568.442C983.726 568.395 982.83 568.395 981.888 568.395C980.945 568.395 980.05 568.395 979.201 568.442C978.746 569.18 978.243 569.919 977.772 570.751L976.499 573.108L977.772 575.464C978.243 576.297 978.746 577.035 979.201 577.773C980.05 577.821 980.945 577.821 981.888 577.821C982.83 577.821 983.726 577.821 984.574 577.773C985.029 577.035 985.532 576.297 986.003 575.464ZM981.888 564.907C981.589 565.253 981.275 565.614 980.961 566.039H982.814C982.5 565.614 982.186 565.253 981.888 564.907ZM981.888 581.308C982.186 580.962 982.5 580.601 982.814 580.177H980.961C981.275 580.601 981.589 580.962 981.888 581.308ZM989.145 560.54C988.171 559.943 986.003 560.854 983.506 563.211C984.323 564.138 985.124 565.143 985.878 566.196C987.166 566.321 988.438 566.51 989.648 566.761C990.449 563.399 990.151 561.09 989.145 560.54ZM988.046 569.557L988.501 570.359C988.674 569.903 988.847 569.447 988.957 569.008C988.533 568.913 988.061 568.835 987.574 568.756L988.046 569.557ZM990.324 558.482C992.633 559.802 992.884 563.274 991.91 567.327C995.9 568.505 998.775 570.453 998.775 573.108C998.775 575.763 995.9 577.711 991.91 578.889C992.884 582.942 992.633 586.414 990.324 587.733C988.03 589.053 984.904 587.545 981.888 584.67C978.871 587.545 975.745 589.053 973.436 587.733C971.142 586.414 970.891 582.942 971.865 578.889C967.875 577.711 965 575.763 965 573.108C965 570.453 967.875 568.505 971.865 567.327C970.891 563.274 971.142 559.802 973.436 558.482C975.745 557.163 978.871 558.671 981.888 561.546C984.904 558.671 988.03 557.163 990.324 558.482ZM989.868 573.108C990.402 574.286 990.873 575.464 991.266 576.658C994.565 575.668 996.419 574.255 996.419 573.108C996.419 571.961 994.565 570.547 991.266 569.557C990.873 570.751 990.402 571.93 989.868 573.108ZM973.907 573.108C973.373 571.93 972.902 570.751 972.509 569.557C969.21 570.547 967.356 571.961 967.356 573.108C967.356 574.255 969.21 575.668 972.509 576.658C972.902 575.464 973.373 574.286 973.907 573.108ZM988.046 576.658L987.574 577.459C988.061 577.381 988.533 577.302 988.957 577.208C988.847 576.768 988.674 576.312 988.501 575.857L988.046 576.658ZM983.506 583.005C986.003 585.361 988.171 586.272 989.145 585.675C990.151 585.125 990.449 582.816 989.648 579.454C988.438 579.706 987.166 579.894 985.878 580.02C985.124 581.072 984.323 582.078 983.506 583.005ZM975.73 569.557L976.201 568.756C975.714 568.835 975.243 568.913 974.818 569.008C974.928 569.447 975.101 569.903 975.274 570.359L975.73 569.557ZM980.27 563.211C977.772 560.854 975.604 559.943 974.614 560.54C973.624 561.09 973.326 563.399 974.127 566.761C975.373 566.506 976.631 566.317 977.897 566.196C978.651 565.143 979.453 564.138 980.27 563.211Z" fill="#005F00" fill-opacity="0.6"/>
<path d="M1707.93 618.077C1710.61 618.077 1712.79 620.259 1712.79 622.987C1712.79 625.586 1710.61 627.794 1707.93 627.794C1705.26 627.794 1703.07 625.586 1703.07 622.987C1703.07 620.259 1705.26 618.077 1707.93 618.077ZM1695.9 643.774C1697.54 644.761 1701.12 643.254 1705.26 639.356C1703.9 637.824 1702.58 636.161 1701.33 634.42C1699.24 634.219 1697.16 633.907 1695.1 633.484C1693.77 639.045 1694.26 642.864 1695.9 643.774ZM1697.75 628.86L1696.99 627.534C1696.71 628.288 1696.42 629.041 1696.24 629.769C1696.94 629.925 1697.72 630.055 1698.53 630.185L1697.75 628.86ZM1714.74 626.885L1716.84 622.987L1714.74 619.09C1713.96 617.713 1713.13 616.492 1712.37 615.271C1710.97 615.193 1709.49 615.193 1707.93 615.193C1706.37 615.193 1704.89 615.193 1703.49 615.271C1702.73 616.492 1701.9 617.713 1701.12 619.09L1699.02 622.987L1701.12 626.885C1701.9 628.262 1702.73 629.483 1703.49 630.704C1704.89 630.782 1706.37 630.782 1707.93 630.782C1709.49 630.782 1710.97 630.782 1712.37 630.704C1713.13 629.483 1713.96 628.262 1714.74 626.885ZM1707.93 609.425C1707.44 609.996 1706.92 610.594 1706.4 611.295H1709.46C1708.94 610.594 1708.42 609.996 1707.93 609.425ZM1707.93 636.55C1708.42 635.979 1708.94 635.381 1709.46 634.68H1706.4C1706.92 635.381 1707.44 635.979 1707.93 636.55ZM1719.94 602.201C1718.32 601.214 1714.74 602.721 1710.61 606.618C1711.96 608.151 1713.28 609.814 1714.53 611.555C1716.66 611.763 1718.77 612.075 1720.77 612.491C1722.09 606.93 1721.6 603.111 1719.94 602.201ZM1718.12 617.115L1718.87 618.441C1719.16 617.687 1719.44 616.934 1719.62 616.206C1718.92 616.05 1718.14 615.92 1717.34 615.79L1718.12 617.115ZM1721.88 598.798C1725.7 600.98 1726.12 606.722 1724.51 613.426C1731.11 615.375 1735.86 618.596 1735.86 622.987C1735.86 627.379 1731.11 630.6 1724.51 632.549C1726.12 639.253 1725.7 644.995 1721.88 647.177C1718.09 649.36 1712.92 646.865 1707.93 642.111C1702.94 646.865 1697.77 649.36 1693.95 647.177C1690.16 644.995 1689.74 639.253 1691.35 632.549C1684.75 630.6 1680 627.379 1680 622.987C1680 618.596 1684.75 615.375 1691.35 613.426C1689.74 606.722 1690.16 600.98 1693.95 598.798C1697.77 596.615 1702.94 599.11 1707.93 603.864C1712.92 599.11 1718.09 596.615 1721.88 598.798ZM1721.13 622.987C1722.01 624.936 1722.79 626.885 1723.44 628.86C1728.9 627.223 1731.97 624.884 1731.97 622.987C1731.97 621.091 1728.9 618.752 1723.44 617.115C1722.79 619.09 1722.01 621.039 1721.13 622.987ZM1694.73 622.987C1693.85 621.039 1693.07 619.09 1692.42 617.115C1686.96 618.752 1683.9 621.091 1683.9 622.987C1683.9 624.884 1686.96 627.223 1692.42 628.86C1693.07 626.885 1693.85 624.936 1694.73 622.987ZM1718.12 628.86L1717.34 630.185C1718.14 630.055 1718.92 629.925 1719.62 629.769C1719.44 629.041 1719.16 628.288 1718.87 627.534L1718.12 628.86ZM1710.61 639.356C1714.74 643.254 1718.32 644.761 1719.94 643.774C1721.6 642.864 1722.09 639.045 1720.77 633.484C1718.77 633.9 1716.66 634.212 1714.53 634.42C1713.28 636.161 1711.96 637.824 1710.61 639.356ZM1697.75 617.115L1698.53 615.79C1697.72 615.92 1696.94 616.05 1696.24 616.206C1696.42 616.934 1696.71 617.687 1696.99 618.441L1697.75 617.115ZM1705.26 606.618C1701.12 602.721 1697.54 601.214 1695.9 602.201C1694.26 603.111 1693.77 606.93 1695.1 612.491C1697.16 612.068 1699.24 611.756 1701.33 611.555C1702.58 609.814 1703.9 608.151 1705.26 606.618Z" fill="#004700" fill-opacity="0.6"/>
<path d="M1795.63 10.5145C1797.03 10.5145 1798.17 11.6575 1798.17 13.0862C1798.17 14.447 1797.03 15.6036 1795.63 15.6036C1794.23 15.6036 1793.08 14.447 1793.08 13.0862C1793.08 11.6575 1794.23 10.5145 1795.63 10.5145ZM1789.33 23.9721C1790.18 24.4892 1792.06 23.7 1794.23 21.6589C1793.52 20.856 1792.82 19.9852 1792.17 19.0735C1791.08 18.9685 1789.98 18.805 1788.91 18.5836C1788.21 21.4956 1788.47 23.4959 1789.33 23.9721ZM1790.29 16.1615L1789.9 15.4675C1789.75 15.8621 1789.6 16.2568 1789.5 16.6378C1789.87 16.7194 1790.28 16.7874 1790.7 16.8555L1790.29 16.1615ZM1799.19 15.1273L1800.3 13.0862L1799.19 11.0451C1798.78 10.3239 1798.35 9.6844 1797.95 9.04486C1797.22 9.00404 1796.44 9.00404 1795.63 9.00404C1794.81 9.00404 1794.04 9.00404 1793.3 9.04486C1792.91 9.6844 1792.47 10.3239 1792.06 11.0451L1790.96 13.0862L1792.06 15.1273C1792.47 15.8485 1792.91 16.4881 1793.3 17.1276C1794.04 17.1685 1794.81 17.1685 1795.63 17.1685C1796.44 17.1685 1797.22 17.1685 1797.95 17.1276C1798.35 16.4881 1798.78 15.8485 1799.19 15.1273ZM1795.63 5.9832C1795.37 6.28256 1795.1 6.59553 1794.83 6.96293H1796.43C1796.16 6.59553 1795.89 6.28256 1795.63 5.9832ZM1795.63 20.1893C1795.89 19.8899 1796.16 19.577 1796.43 19.2096H1794.83C1795.1 19.577 1795.37 19.8899 1795.63 20.1893ZM1801.91 2.20036C1801.07 1.68328 1799.19 2.4725 1797.03 4.51361C1797.74 5.31644 1798.43 6.18731 1799.08 7.09901C1800.2 7.20786 1801.3 7.37115 1802.35 7.58887C1803.04 4.6769 1802.79 2.67661 1801.91 2.20036ZM1800.96 10.011L1801.36 10.705C1801.51 10.3103 1801.66 9.91573 1801.75 9.53472C1801.38 9.45308 1800.98 9.38504 1800.55 9.317L1800.96 10.011ZM1802.94 0.417791C1804.94 1.56081 1805.15 4.56804 1804.31 8.07874C1807.77 9.09929 1810.26 10.7866 1810.26 13.0862C1810.26 15.3859 1807.77 17.0732 1804.31 18.0938C1805.15 21.6045 1804.94 24.6117 1802.94 25.7547C1800.95 26.8977 1798.24 25.5914 1795.63 23.1013C1793.02 25.5914 1790.31 26.8977 1788.31 25.7547C1786.32 24.6117 1786.1 21.6045 1786.95 18.0938C1783.49 17.0732 1781 15.3859 1781 13.0862C1781 10.7866 1783.49 9.09929 1786.95 8.07874C1786.1 4.56804 1786.32 1.56081 1788.31 0.417791C1790.31 -0.725227 1793.02 0.581079 1795.63 3.07123C1798.24 0.581079 1800.95 -0.725227 1802.94 0.417791ZM1802.54 13.0862C1803 14.1068 1803.41 15.1273 1803.75 16.1615C1806.61 15.3042 1808.21 14.0796 1808.21 13.0862C1808.21 12.0929 1806.61 10.8682 1803.75 10.011C1803.41 11.0451 1803 12.0657 1802.54 13.0862ZM1788.72 13.0862C1788.25 12.0657 1787.84 11.0451 1787.5 10.011C1784.65 10.8682 1783.04 12.0929 1783.04 13.0862C1783.04 14.0796 1784.65 15.3042 1787.5 16.1615C1787.84 15.1273 1788.25 14.1068 1788.72 13.0862ZM1800.96 16.1615L1800.55 16.8555C1800.98 16.7874 1801.38 16.7194 1801.75 16.6378C1801.66 16.2568 1801.51 15.8621 1801.36 15.4675L1800.96 16.1615ZM1797.03 21.6589C1799.19 23.7 1801.07 24.4892 1801.91 23.9721C1802.79 23.4959 1803.04 21.4956 1802.35 18.5836C1801.3 18.8013 1800.2 18.9646 1799.08 19.0735C1798.43 19.9852 1797.74 20.856 1797.03 21.6589ZM1790.29 10.011L1790.7 9.317C1790.28 9.38504 1789.87 9.45308 1789.5 9.53472C1789.6 9.91573 1789.75 10.3103 1789.9 10.705L1790.29 10.011ZM1794.23 4.51361C1792.06 2.4725 1790.18 1.68328 1789.33 2.20036C1788.47 2.67661 1788.21 4.6769 1788.91 7.58887C1789.98 7.36747 1791.08 7.20394 1792.17 7.09901C1792.82 6.18731 1793.52 5.31644 1794.23 4.51361Z" fill="#005F00" fill-opacity="0.6"/>
<path d="M809.256 32.8094C810.43 32.8094 811.388 33.767 811.388 34.9641C811.388 36.1042 810.43 37.0732 809.256 37.0732C808.081 37.0732 807.124 36.1042 807.124 34.9641C807.124 33.767 808.081 32.8094 809.256 32.8094ZM803.977 44.0847C804.695 44.5179 806.269 43.8567 808.081 42.1466C807.489 41.4739 806.907 40.7443 806.36 39.9804C805.441 39.8925 804.528 39.7555 803.624 39.57C803.042 42.0097 803.259 43.6856 803.977 44.0847ZM804.787 37.5407L804.456 36.9592C804.331 37.2898 804.205 37.6205 804.125 37.9397C804.433 38.0081 804.775 38.0651 805.129 38.1221L804.787 37.5407ZM812.243 36.6742L813.166 34.9641L812.243 33.254C811.901 32.6498 811.536 32.1139 811.205 31.5781C810.59 31.5439 809.94 31.5439 809.256 31.5439C808.572 31.5439 807.922 31.5439 807.306 31.5781C806.976 32.1139 806.611 32.6498 806.269 33.254L805.345 34.9641L806.269 36.6742C806.611 37.2784 806.976 37.8143 807.306 38.3501C807.922 38.3843 808.572 38.3843 809.256 38.3843C809.94 38.3843 810.59 38.3843 811.205 38.3501C811.536 37.8143 811.901 37.2784 812.243 36.6742ZM809.256 29.0129C809.039 29.2637 808.811 29.526 808.583 29.8338H809.928C809.7 29.526 809.472 29.2637 809.256 29.0129ZM809.256 40.9153C809.472 40.6645 809.7 40.4022 809.928 40.0944H808.583C808.811 40.4022 809.039 40.6645 809.256 40.9153ZM814.523 25.8435C813.816 25.4103 812.243 26.0715 810.43 27.7817C811.023 28.4543 811.604 29.1839 812.152 29.9478C813.086 30.039 814.01 30.1758 814.888 30.3582C815.469 27.9185 815.253 26.2426 814.523 25.8435ZM813.725 32.3875L814.055 32.969C814.181 32.6384 814.306 32.3077 814.386 31.9885C814.078 31.9201 813.736 31.8631 813.383 31.8061L813.725 32.3875ZM815.378 24.35C817.054 25.3077 817.236 27.8273 816.529 30.7686C819.425 31.6237 821.512 33.0374 821.512 34.9641C821.512 36.8908 819.425 38.3045 816.529 39.1596C817.236 42.101 817.054 44.6205 815.378 45.5782C813.713 46.5358 811.445 45.4414 809.256 43.355C807.067 45.4414 804.798 46.5358 803.122 45.5782C801.458 44.6205 801.275 42.101 801.982 39.1596C799.086 38.3045 797 36.8908 797 34.9641C797 33.0374 799.086 31.6237 801.982 30.7686C801.275 27.8273 801.458 25.3077 803.122 24.35C804.798 23.3924 807.067 24.4868 809.256 26.5732C811.445 24.4868 813.713 23.3924 815.378 24.35ZM815.047 34.9641C815.435 35.8192 815.777 36.6742 816.062 37.5407C818.456 36.8224 819.801 35.7964 819.801 34.9641C819.801 34.1319 818.456 33.1058 816.062 32.3875C815.777 33.254 815.435 34.109 815.047 34.9641ZM803.464 34.9641C803.077 34.109 802.735 33.254 802.45 32.3875C800.055 33.1058 798.71 34.1319 798.71 34.9641C798.71 35.7964 800.055 36.8224 802.45 37.5407C802.735 36.6742 803.077 35.8192 803.464 34.9641ZM813.725 37.5407L813.383 38.1221C813.736 38.0651 814.078 38.0081 814.386 37.9397C814.306 37.6205 814.181 37.2898 814.055 36.9592L813.725 37.5407ZM810.43 42.1466C812.243 43.8567 813.816 44.5179 814.523 44.0847C815.253 43.6856 815.469 42.0097 814.888 39.57C814.01 39.7524 813.086 39.8892 812.152 39.9804C811.604 40.7443 811.023 41.4739 810.43 42.1466ZM804.787 32.3875L805.129 31.8061C804.775 31.8631 804.433 31.9201 804.125 31.9885C804.205 32.3077 804.331 32.6384 804.456 32.969L804.787 32.3875ZM808.081 27.7817C806.269 26.0715 804.695 25.4103 803.977 25.8435C803.259 26.2426 803.042 27.9185 803.624 30.3582C804.528 30.1727 805.441 30.0357 806.36 29.9478C806.907 29.1839 807.489 28.4543 808.081 27.7817Z" fill="#005F00"/>
<path d="M1202 623H1231.44L1228.76 653.226L1216.69 656.642L1204.68 653.224L1202 623ZM1225.96 629.185L1207.48 629.181L1207.78 632.855L1221.97 632.859L1221.62 636.667H1212.31L1212.65 640.273H1221.31L1220.8 645.212L1216.72 646.34L1212.58 645.203L1212.31 642.245H1208.65L1209.06 647.65L1216.72 650.035L1224.25 647.891L1225.96 629.185Z" fill="#005F00" fill-opacity="0.6"/>
<path d="M101 475.499H130L127.363 505.277L115.469 508.642L103.641 505.275L101 475.499ZM124.601 481.592L106.401 481.588L106.694 485.208L120.677 485.212L120.326 488.963H111.155L111.488 492.516H120.025L119.52 497.382L115.501 498.492L111.421 497.373L111.159 494.459H107.556L107.957 499.783L115.501 502.132L122.92 500.021L124.601 481.592Z" fill="#005F00" fill-opacity="0.6"/>
</svg>
