<svg width="600" height="450" viewBox="0 0 600 450" fill="none" xmlns="http://www.w3.org/2000/svg">
<path d="M532.22 345.57C530.79 345.57 529.36 345.2 528.08 344.46L514.13 336.41C513.32 335.94 512.84 335.11 512.84 334.17C512.84 333.23 513.32 332.4 514.13 331.93L528.08 323.88C530.63 322.41 533.8 322.41 536.35 323.88L550.3 331.93C551.11 332.4 551.59 333.23 551.59 334.17C551.59 335.11 551.11 335.94 550.3 336.41L536.35 344.46C535.07 345.2 533.64 345.57 532.21 345.57H532.22ZM532.22 324.99C531.17 324.99 530.12 325.26 529.19 325.8L515.24 333.85C515.08 333.94 515.05 334.09 515.05 334.17C515.05 334.25 515.07 334.4 515.24 334.49L529.19 342.54C531.06 343.62 533.38 343.62 535.25 342.54L549.2 334.49C549.36 334.4 549.39 334.25 549.39 334.17C549.39 334.09 549.37 333.94 549.2 333.85L535.25 325.8C534.31 325.26 533.27 324.99 532.22 324.99Z" fill="url(#paint0_linear_8_1080)"/>
<path d="M492.33 299.87C490.01 299.87 487.68 299.27 485.61 298.07L461.61 284.21C460.47 283.55 459.78 282.37 459.78 281.05C459.78 279.73 460.46 278.55 461.61 277.89L485.61 264.03C489.75 261.64 494.91 261.63 499.05 264.03L523.06 277.89C524.2 278.55 524.88 279.73 524.88 281.05C524.88 282.37 524.2 283.55 523.06 284.21L499.05 298.07C496.98 299.27 494.65 299.87 492.33 299.87ZM486.71 296.16C490.18 298.16 494.48 298.16 497.94 296.16L521.94 282.3C522.59 281.93 522.66 281.3 522.66 281.05C522.66 280.8 522.59 280.18 521.94 279.81L497.93 265.95C494.46 263.95 490.16 263.95 486.7 265.95L462.7 279.81C462.05 280.18 461.98 280.8 461.98 281.05C461.98 281.3 462.05 281.92 462.7 282.29L486.7 296.15L486.71 296.16Z" fill="url(#paint1_linear_8_1080)"/>
<path d="M63.04 321.68C60.72 321.68 58.39 321.08 56.32 319.88L32.31 306.02C31.17 305.36 30.49 304.18 30.49 302.86C30.49 301.54 31.17 300.36 32.31 299.7L56.31 285.84C60.45 283.44 65.61 283.44 69.75 285.84L93.75 299.7C94.89 300.36 95.58 301.54 95.58 302.86C95.58 304.18 94.9 305.36 93.75 306.02L69.75 319.88C67.68 321.08 65.35 321.68 63.03 321.68H63.04ZM63.04 286.26C61.1 286.26 59.16 286.76 57.42 287.76L33.42 301.62C32.77 301.99 32.7 302.61 32.7 302.86C32.7 303.11 32.77 303.73 33.42 304.11L57.42 317.97C60.89 319.97 65.19 319.97 68.65 317.97L92.65 304.11C93.3 303.74 93.37 303.12 93.37 302.87C93.37 302.62 93.3 302 92.65 301.63L68.65 287.77C66.92 286.77 64.98 286.27 63.03 286.27L63.04 286.26Z" fill="url(#paint2_linear_8_1080)"/>
<path opacity="0.6" d="M306.13 382.14L134.49 283.04C131.99 281.6 132.3 279.07 135.19 277.4L245.35 213.8C248.24 212.13 252.61 211.95 255.11 213.4L426.75 312.5C429.25 313.94 428.94 316.47 426.05 318.14L315.89 381.74C313 383.41 308.63 383.59 306.13 382.14Z" fill="#020230"/>
<path d="M310.06 400.04C308.05 400.04 306.13 399.62 304.66 398.77L108.76 285.67C107.16 284.75 106.28 283.41 106.28 281.92C106.28 280.2 107.48 278.53 109.56 277.32L243.1 199.08C246.76 196.96 252.14 196.76 255.35 198.61L451.25 311.71C452.85 312.63 453.73 313.97 453.73 315.46C453.73 317.18 452.53 318.85 450.45 320.06L316.92 398.3C314.93 399.45 312.44 400.03 310.07 400.03L310.06 400.04ZM249.97 199.58C247.96 199.58 245.83 200.06 244.21 201L110.68 279.24C109.31 280.03 108.5 281.03 108.5 281.92C108.5 282.81 109.25 283.39 109.87 283.76L305.77 396.86C308.27 398.31 312.87 398.09 315.8 396.4L449.34 318.16C450.71 317.37 451.52 316.37 451.52 315.48C451.52 314.59 450.77 314.01 450.15 313.65L254.25 200.55C253.13 199.91 251.6 199.59 249.98 199.59L249.97 199.58Z" fill="url(#paint3_linear_8_1080)"/>
<path d="M472.35 146.36L301.38 47.65C300.2 46.97 298.98 46.83 297.89 47.15C297.89 47.15 297.88 47.15 297.87 47.15L294.7 48.25L295.81 48.51C295.36 49.04 295 49.7 294.77 50.47L256.11 176C255.15 179.11 256.56 182.9 259.24 184.45L430.21 283.16C430.63 283.4 431.05 283.56 431.47 283.67L431.05 284.59L434.07 283.53C435.31 283.03 436.33 281.93 436.82 280.33L475.48 154.8C476.44 151.69 475.03 147.91 472.35 146.35V146.36Z" fill="url(#paint4_radial_8_1080)"/>
<path d="M424.1 287.86L424.16 287.93L255.29 190.43C252.81 189 248.47 189.18 245.6 190.83L136.49 253.82L132.85 252.43L133.87 257.53C134.01 258.29 134.54 259.01 135.51 259.57L305.94 357.97C308.42 359.4 312.76 359.22 315.63 357.57L425.02 294.42C426.37 293.64 427.15 292.67 427.34 291.72L428.38 286.76L424.09 287.85L424.1 287.86Z" fill="url(#paint5_linear_8_1080)"/>
<path d="M306.13 353.49L134.49 254.39C131.99 252.95 132.3 250.42 135.19 248.75L245.35 185.15C248.24 183.48 252.61 183.3 255.11 184.75L426.75 283.85C429.25 285.29 428.94 287.82 426.05 289.49L315.89 353.09C313 354.76 308.63 354.94 306.13 353.49Z" fill="url(#paint6_radial_8_1080)"/>
<path d="M426.05 288.15L315.89 351.75C313 353.42 308.63 353.6 306.13 352.15L134.49 253.05C133.64 252.56 133.14 251.94 132.93 251.27C132.6 252.42 133.08 253.57 134.49 254.39L306.13 353.49C308.63 354.93 313 354.75 315.89 353.09L426.05 289.49C427.95 288.39 428.71 286.92 428.31 285.63C428.05 286.53 427.31 287.42 426.05 288.15Z" fill="white"/>
<g opacity="0.4">
<path d="M216.36 238.31L210.57 234.96C210.1 234.69 210.16 234.22 210.7 233.91L217.54 229.96C218.08 229.65 218.89 229.62 219.36 229.88L225.15 233.23C225.62 233.5 225.56 233.97 225.02 234.28L218.18 238.23C217.64 238.54 216.83 238.57 216.36 238.31Z" fill="#06033E"/>
<path d="M225.31 243.48L219.52 240.13C219.05 239.86 219.11 239.39 219.65 239.08L226.49 235.13C227.03 234.82 227.84 234.79 228.31 235.05L234.1 238.4C234.57 238.67 234.51 239.14 233.97 239.45L227.13 243.4C226.59 243.71 225.78 243.74 225.31 243.48Z" fill="#06033E"/>
<path d="M234.26 248.64L228.47 245.29C228 245.02 228.06 244.55 228.6 244.24L235.44 240.29C235.98 239.98 236.79 239.95 237.26 240.21L243.05 243.56C243.52 243.83 243.46 244.3 242.92 244.61L236.08 248.56C235.54 248.87 234.73 248.9 234.26 248.64Z" fill="#06033E"/>
<path d="M246.63 244.38L240.84 241.03C240.37 240.76 240.43 240.29 240.97 239.98L246.71 236.67C247.25 236.36 248.06 236.33 248.53 236.59L254.32 239.94C254.79 240.21 254.73 240.68 254.19 240.99L248.45 244.3C247.91 244.61 247.1 244.64 246.63 244.38Z" fill="#06033E"/>
<path d="M255.58 249.54L249.79 246.19C249.32 245.92 249.38 245.45 249.92 245.14L255.66 241.83C256.2 241.52 257.01 241.49 257.48 241.75L263.27 245.1C263.74 245.37 263.68 245.84 263.14 246.15L257.4 249.46C256.86 249.77 256.05 249.8 255.58 249.54Z" fill="#06033E"/>
<path d="M264.53 254.71L258.74 251.36C258.27 251.09 258.33 250.62 258.87 250.31L264.61 247C265.15 246.69 265.96 246.66 266.43 246.92L272.22 250.27C272.69 250.54 272.63 251.01 272.09 251.32L266.35 254.63C265.81 254.94 265 254.97 264.53 254.71Z" fill="#06033E"/>
<path d="M273.48 259.88L267.69 256.53C267.22 256.26 267.28 255.79 267.82 255.48L273.56 252.17C274.1 251.86 274.91 251.83 275.38 252.09L281.17 255.44C281.64 255.71 281.58 256.18 281.04 256.49L275.3 259.8C274.76 260.11 273.95 260.14 273.48 259.88Z" fill="#06033E"/>
<path d="M282.43 265.04L276.64 261.69C276.17 261.42 276.23 260.95 276.77 260.64L282.51 257.33C283.05 257.02 283.86 256.99 284.33 257.25L290.12 260.6C290.59 260.87 290.53 261.34 289.99 261.65L284.25 264.96C283.71 265.27 282.9 265.3 282.43 265.04Z" fill="#06033E"/>
<path d="M291.38 270.21L285.59 266.86C285.12 266.59 285.18 266.12 285.72 265.81L291.46 262.5C292 262.19 292.81 262.16 293.28 262.42L299.07 265.77C299.54 266.04 299.48 266.51 298.94 266.82L293.2 270.13C292.66 270.44 291.85 270.47 291.38 270.21Z" fill="#06033E"/>
<path d="M300.33 275.38L294.54 272.03C294.07 271.76 294.13 271.29 294.67 270.98L300.41 267.67C300.95 267.36 301.76 267.33 302.23 267.59L308.02 270.94C308.49 271.21 308.43 271.68 307.89 271.99L302.15 275.3C301.61 275.61 300.8 275.64 300.33 275.38Z" fill="#06033E"/>
<path d="M309.28 280.54L303.49 277.19C303.02 276.92 303.08 276.45 303.62 276.14L309.36 272.83C309.9 272.52 310.71 272.49 311.18 272.75L316.97 276.1C317.44 276.37 317.38 276.84 316.84 277.15L311.1 280.47C310.56 280.78 309.75 280.81 309.28 280.55V280.54Z" fill="#06033E"/>
<path d="M318.23 285.71L312.44 282.36C311.97 282.09 312.03 281.62 312.57 281.31L318.31 278C318.85 277.69 319.66 277.66 320.13 277.92L325.92 281.27C326.39 281.54 326.33 282.01 325.79 282.32L320.05 285.64C319.51 285.95 318.7 285.98 318.23 285.72V285.71Z" fill="#06033E"/>
<path d="M327.18 290.88L321.39 287.53C320.92 287.26 320.98 286.79 321.52 286.48L327.26 283.17C327.8 282.86 328.61 282.83 329.08 283.09L334.87 286.44C335.34 286.71 335.28 287.18 334.74 287.49L329 290.81C328.46 291.12 327.65 291.15 327.18 290.89V290.88Z" fill="#06033E"/>
<path d="M259.82 241.93L254.03 238.58C253.56 238.31 253.62 237.84 254.16 237.53L259.9 234.21C260.44 233.9 261.25 233.87 261.72 234.13L267.51 237.48C267.98 237.75 267.92 238.22 267.38 238.53L261.64 241.84C261.1 242.15 260.29 242.18 259.82 241.92V241.93Z" fill="#06033E"/>
<path d="M250.74 236.69L244.95 233.34C244.48 233.07 244.54 232.6 245.08 232.29L250.82 228.97C251.36 228.66 252.17 228.63 252.64 228.89L258.43 232.24C258.9 232.51 258.84 232.98 258.3 233.29L252.56 236.6C252.02 236.91 251.21 236.94 250.74 236.68V236.69Z" fill="#06033E"/>
<path d="M241.64 231.43L229.16 224.22C228.69 223.95 228.75 223.48 229.29 223.17L235.03 219.86C235.57 219.55 236.38 219.52 236.85 219.78L249.33 226.99C249.8 227.26 249.74 227.73 249.2 228.04L243.46 231.35C242.92 231.66 242.11 231.69 241.64 231.43Z" fill="#06033E"/>
<path d="M248 225.05L237.87 219.2C237.4 218.93 237.46 218.46 238 218.15L243.74 214.83C244.28 214.52 245.09 214.49 245.56 214.75L255.69 220.6C256.16 220.87 256.1 221.34 255.56 221.65L249.82 224.96C249.28 225.27 248.47 225.3 248 225.04V225.05Z" fill="#06033E"/>
<path d="M268.77 247.1L262.98 243.75C262.51 243.48 262.57 243.01 263.11 242.7L268.85 239.38C269.39 239.07 270.2 239.04 270.67 239.3L276.46 242.65C276.93 242.92 276.87 243.39 276.33 243.7L270.59 247.01C270.05 247.32 269.24 247.35 268.77 247.09V247.1Z" fill="#06033E"/>
<path d="M277.72 252.26L271.93 248.91C271.46 248.64 271.52 248.17 272.06 247.86L277.8 244.54C278.34 244.23 279.15 244.2 279.62 244.46L285.41 247.81C285.88 248.08 285.82 248.55 285.28 248.86L279.54 252.17C279 252.48 278.19 252.51 277.72 252.25V252.26Z" fill="#06033E"/>
<path d="M286.67 257.43L280.88 254.08C280.41 253.81 280.47 253.34 281.01 253.03L286.75 249.72C287.29 249.41 288.1 249.38 288.57 249.64L294.36 252.99C294.83 253.26 294.77 253.73 294.23 254.04L288.49 257.35C287.95 257.66 287.14 257.69 286.67 257.43Z" fill="#06033E"/>
<path d="M295.62 262.6L289.83 259.25C289.36 258.98 289.42 258.51 289.96 258.2L295.7 254.89C296.24 254.58 297.05 254.55 297.52 254.81L303.31 258.16C303.78 258.43 303.72 258.9 303.18 259.21L297.44 262.52C296.9 262.83 296.09 262.86 295.62 262.6Z" fill="#06033E"/>
<path d="M304.57 267.76L298.78 264.41C298.31 264.14 298.37 263.67 298.91 263.36L304.65 260.05C305.19 259.74 306 259.71 306.47 259.97L312.26 263.32C312.73 263.59 312.67 264.06 312.13 264.37L306.39 267.68C305.85 267.99 305.04 268.02 304.57 267.76Z" fill="#06033E"/>
<path d="M313.51 272.93L307.72 269.58C307.25 269.31 307.31 268.84 307.85 268.53L313.59 265.22C314.13 264.91 314.94 264.88 315.41 265.14L321.2 268.49C321.67 268.76 321.61 269.23 321.07 269.54L315.33 272.85C314.79 273.16 313.98 273.19 313.51 272.93Z" fill="#06033E"/>
<path d="M322.46 278.1L316.67 274.75C316.2 274.48 316.26 274.01 316.8 273.7L322.54 270.39C323.08 270.08 323.89 270.05 324.36 270.31L330.15 273.66C330.62 273.93 330.56 274.4 330.02 274.71L324.28 278.02C323.74 278.33 322.93 278.36 322.46 278.1Z" fill="#06033E"/>
<path d="M331.41 283.27L325.62 279.92C325.15 279.65 325.21 279.18 325.75 278.87L331.49 275.56C332.03 275.25 332.84 275.22 333.31 275.48L339.1 278.83C339.57 279.1 339.51 279.57 338.97 279.88L333.23 283.19C332.69 283.5 331.88 283.53 331.41 283.27Z" fill="#06033E"/>
<path d="M340.36 288.43L334.57 285.08C334.1 284.81 334.16 284.34 334.7 284.03L340.44 280.72C340.98 280.41 341.79 280.38 342.26 280.64L348.05 283.99C348.52 284.26 348.46 284.73 347.92 285.04L342.18 288.35C341.64 288.66 340.83 288.69 340.36 288.43Z" fill="#06033E"/>
<path d="M356.27 297.62L343.63 290.32C343.16 290.05 343.22 289.58 343.76 289.27L349.5 285.95C350.04 285.64 350.85 285.61 351.32 285.87L363.96 293.17C364.43 293.44 364.37 293.91 363.83 294.22L358.09 297.53C357.55 297.84 356.74 297.87 356.27 297.61V297.62Z" fill="#06033E"/>
<path d="M373.69 287.56L363.02 281.4C362.55 281.13 362.61 280.66 363.15 280.35L368.89 277.03C369.43 276.72 370.24 276.69 370.71 276.95L381.38 283.11C381.85 283.38 381.79 283.85 381.25 284.16L375.51 287.48C374.97 287.79 374.16 287.82 373.69 287.56Z" fill="#06033E"/>
<path d="M284.44 246.09L278.65 242.74C278.18 242.47 278.24 242 278.78 241.69L284.52 238.38C285.06 238.07 285.87 238.04 286.34 238.3L292.13 241.65C292.6 241.92 292.54 242.39 292 242.7L286.26 246.02C285.72 246.33 284.91 246.36 284.44 246.1V246.09Z" fill="#06033E"/>
<path d="M275.27 240.79L269.48 237.44C269.01 237.17 269.07 236.7 269.61 236.39L275.35 233.07C275.89 232.76 276.7 232.73 277.17 232.99L282.96 236.34C283.43 236.61 283.37 237.08 282.83 237.39L277.09 240.7C276.55 241.01 275.74 241.04 275.27 240.78V240.79Z" fill="#06033E"/>
<path d="M266.1 235.5L260.31 232.15C259.84 231.88 259.9 231.41 260.44 231.1L266.18 227.79C266.72 227.48 267.53 227.45 268 227.71L273.79 231.06C274.26 231.33 274.2 231.8 273.66 232.11L267.92 235.43C267.38 235.74 266.57 235.77 266.1 235.51V235.5Z" fill="#06033E"/>
<path d="M256.93 230.2L251.14 226.85C250.67 226.58 250.73 226.11 251.27 225.8L257.01 222.48C257.55 222.17 258.36 222.14 258.83 222.4L264.62 225.75C265.09 226.02 265.03 226.49 264.49 226.8L258.75 230.11C258.21 230.42 257.4 230.45 256.93 230.19V230.2Z" fill="#06033E"/>
<path d="M293.39 251.25L287.6 247.9C287.13 247.63 287.19 247.16 287.73 246.85L293.47 243.53C294.01 243.22 294.82 243.19 295.29 243.45L301.08 246.8C301.55 247.07 301.49 247.54 300.95 247.85L295.21 251.17C294.67 251.48 293.86 251.51 293.39 251.25Z" fill="#06033E"/>
<path d="M302.34 256.42L296.55 253.07C296.08 252.8 296.14 252.33 296.68 252.02L302.42 248.7C302.96 248.39 303.77 248.36 304.24 248.62L310.03 251.97C310.5 252.24 310.44 252.71 309.9 253.02L304.16 256.34C303.62 256.65 302.81 256.68 302.34 256.42Z" fill="#06033E"/>
<path d="M311.29 261.59L305.5 258.24C305.03 257.97 305.09 257.5 305.63 257.19L311.37 253.87C311.91 253.56 312.72 253.53 313.19 253.79L318.98 257.14C319.45 257.41 319.39 257.88 318.85 258.19L313.11 261.51C312.57 261.82 311.76 261.85 311.29 261.59Z" fill="#06033E"/>
<path d="M320.24 266.75L314.45 263.4C313.98 263.13 314.04 262.66 314.58 262.35L320.32 259.03C320.86 258.72 321.67 258.69 322.14 258.95L327.93 262.3C328.4 262.57 328.34 263.04 327.8 263.35L322.06 266.67C321.52 266.98 320.71 267.01 320.24 266.75Z" fill="#06033E"/>
<path d="M329.19 271.92L323.4 268.57C322.93 268.3 322.99 267.83 323.53 267.52L329.27 264.2C329.81 263.89 330.62 263.86 331.09 264.12L336.88 267.47C337.35 267.74 337.29 268.21 336.75 268.52L331.01 271.84C330.47 272.15 329.66 272.18 329.19 271.92Z" fill="#06033E"/>
<path d="M338.14 277.09L332.35 273.74C331.88 273.47 331.94 273 332.48 272.69L338.22 269.37C338.76 269.06 339.57 269.03 340.04 269.29L345.83 272.64C346.3 272.91 346.24 273.38 345.7 273.69L339.96 277.01C339.42 277.32 338.61 277.35 338.14 277.09Z" fill="#06033E"/>
<path d="M347.08 282.25L341.29 278.9C340.82 278.63 340.88 278.16 341.42 277.85L347.16 274.53C347.7 274.22 348.51 274.19 348.98 274.45L354.77 277.8C355.24 278.07 355.18 278.54 354.64 278.85L348.9 282.17C348.36 282.48 347.55 282.51 347.08 282.25Z" fill="#06033E"/>
<path d="M356.03 287.42L350.24 284.07C349.77 283.8 349.83 283.33 350.37 283.02L356.11 279.7C356.65 279.39 357.46 279.36 357.93 279.62L363.72 282.97C364.19 283.24 364.13 283.71 363.59 284.02L357.85 287.34C357.31 287.65 356.5 287.68 356.03 287.42Z" fill="#06033E"/>
<path d="M364.98 292.59L359.19 289.24C358.72 288.97 358.78 288.5 359.32 288.19L365.06 284.87C365.6 284.56 366.41 284.53 366.88 284.79L372.67 288.14C373.14 288.41 373.08 288.88 372.54 289.19L366.8 292.51C366.26 292.82 365.45 292.85 364.98 292.59Z" fill="#06033E"/>
<path d="M279.73 233.31L273.94 229.96C273.47 229.69 273.53 229.22 274.07 228.91L279.81 225.6C280.35 225.29 281.16 225.26 281.63 225.52L287.42 228.87C287.89 229.14 287.83 229.61 287.29 229.92L281.55 233.23C281.01 233.54 280.2 233.57 279.73 233.31Z" fill="#06033E"/>
<path d="M270.82 228.17L265.03 224.82C264.56 224.55 264.62 224.08 265.16 223.77L270.9 220.45C271.44 220.14 272.25 220.11 272.72 220.37L278.51 223.72C278.98 223.99 278.92 224.46 278.38 224.77L272.64 228.09C272.1 228.4 271.29 228.43 270.82 228.17Z" fill="#06033E"/>
<path d="M261.92 223.02L256.13 219.67C255.66 219.4 255.72 218.93 256.26 218.62L262 215.3C262.54 214.99 263.35 214.96 263.82 215.22L269.61 218.57C270.08 218.84 270.02 219.31 269.48 219.62L263.74 222.94C263.2 223.25 262.39 223.28 261.92 223.02Z" fill="#06033E"/>
<path d="M253.01 217.88L247.22 214.53C246.75 214.26 246.81 213.79 247.35 213.48L253.09 210.17C253.63 209.86 254.44 209.83 254.91 210.09L260.7 213.44C261.17 213.71 261.11 214.18 260.57 214.49L254.83 217.8C254.29 218.11 253.48 218.14 253.01 217.88Z" fill="#06033E"/>
<path d="M262.17 212.6L256.38 209.25C255.91 208.98 255.97 208.51 256.51 208.2L258.41 207.1C258.95 206.79 259.76 206.76 260.23 207.02L266.02 210.37C266.49 210.64 266.43 211.11 265.89 211.42L263.99 212.52C263.45 212.83 262.64 212.86 262.17 212.6Z" fill="#06033E"/>
<path d="M273.79 219.31L268 215.96C267.53 215.69 267.59 215.22 268.13 214.91L270.03 213.81C270.57 213.5 271.38 213.47 271.85 213.73L277.64 217.08C278.11 217.35 278.05 217.82 277.51 218.13L275.61 219.23C275.07 219.54 274.26 219.57 273.79 219.31Z" fill="#06033E"/>
<path d="M282.66 224.43L276.87 221.08C276.4 220.81 276.46 220.34 277 220.03L278.9 218.93C279.44 218.62 280.25 218.59 280.72 218.85L286.51 222.2C286.98 222.47 286.92 222.94 286.38 223.25L284.48 224.35C283.94 224.66 283.13 224.69 282.66 224.43Z" fill="#06033E"/>
<path d="M291.53 229.55L285.74 226.2C285.27 225.93 285.33 225.46 285.87 225.15L287.77 224.05C288.31 223.74 289.12 223.71 289.59 223.97L295.38 227.32C295.85 227.59 295.79 228.06 295.25 228.37L293.35 229.47C292.81 229.78 292 229.81 291.53 229.55Z" fill="#06033E"/>
<path d="M300.39 234.67L294.6 231.32C294.13 231.05 294.19 230.58 294.73 230.27L296.63 229.17C297.17 228.86 297.98 228.83 298.45 229.09L304.24 232.44C304.71 232.71 304.65 233.18 304.11 233.49L302.21 234.59C301.67 234.9 300.86 234.93 300.39 234.67Z" fill="#06033E"/>
<path d="M349.9 263.25L344.11 259.9C343.64 259.63 343.7 259.16 344.24 258.85L346.14 257.75C346.68 257.44 347.49 257.41 347.96 257.67L353.75 261.02C354.22 261.29 354.16 261.76 353.62 262.07L351.72 263.17C351.18 263.48 350.37 263.51 349.9 263.25Z" fill="#06033E"/>
<path d="M358.77 268.37L352.98 265.02C352.51 264.75 352.57 264.28 353.11 263.97L355.01 262.87C355.55 262.56 356.36 262.53 356.83 262.79L362.62 266.14C363.09 266.41 363.03 266.88 362.49 267.19L360.59 268.29C360.05 268.6 359.24 268.63 358.77 268.37Z" fill="#06033E"/>
<path d="M367.64 273.49L361.85 270.14C361.38 269.87 361.44 269.4 361.98 269.09L363.88 267.99C364.42 267.68 365.23 267.65 365.7 267.91L371.49 271.26C371.96 271.53 371.9 272 371.36 272.31L369.46 273.41C368.92 273.72 368.11 273.75 367.64 273.49Z" fill="#06033E"/>
<path d="M376.5 278.61L370.71 275.26C370.24 274.99 370.3 274.52 370.84 274.21L372.74 273.11C373.28 272.8 374.09 272.77 374.56 273.03L380.35 276.38C380.82 276.65 380.76 277.12 380.22 277.43L378.32 278.53C377.78 278.84 376.97 278.87 376.5 278.61Z" fill="#06033E"/>
<path d="M288.68 238.47L282.89 235.12C282.42 234.85 282.48 234.38 283.02 234.07L288.76 230.76C289.3 230.45 290.11 230.42 290.58 230.68L296.37 234.03C296.84 234.3 296.78 234.77 296.24 235.08L290.5 238.39C289.96 238.7 289.15 238.73 288.68 238.47Z" fill="#06033E"/>
<path d="M297.63 243.64L291.84 240.29C291.37 240.02 291.43 239.55 291.97 239.24L297.71 235.93C298.25 235.62 299.06 235.59 299.53 235.85L305.32 239.2C305.79 239.47 305.73 239.94 305.19 240.25L299.45 243.56C298.91 243.87 298.1 243.9 297.63 243.64Z" fill="#06033E"/>
<path d="M306.58 248.81L300.79 245.46C300.32 245.19 300.38 244.72 300.92 244.41L306.66 241.1C307.2 240.79 308.01 240.76 308.48 241.02L314.27 244.37C314.74 244.64 314.68 245.11 314.14 245.42L308.4 248.74C307.86 249.05 307.05 249.08 306.58 248.82V248.81Z" fill="#06033E"/>
<path d="M315.53 253.97L309.74 250.62C309.27 250.35 309.33 249.88 309.87 249.57L315.61 246.26C316.15 245.95 316.96 245.92 317.43 246.18L323.22 249.53C323.69 249.8 323.63 250.27 323.09 250.58L317.35 253.9C316.81 254.21 316 254.24 315.53 253.98V253.97Z" fill="#06033E"/>
<path d="M324.47 259.14L318.68 255.79C318.21 255.52 318.27 255.05 318.81 254.74L324.55 251.43C325.09 251.12 325.9 251.09 326.37 251.35L332.16 254.7C332.63 254.97 332.57 255.44 332.03 255.75L326.29 259.07C325.75 259.38 324.94 259.41 324.47 259.15V259.14Z" fill="#06033E"/>
<path d="M333.42 264.31L327.63 260.96C327.16 260.69 327.22 260.22 327.76 259.91L333.5 256.6C334.04 256.29 334.85 256.26 335.32 256.52L341.11 259.87C341.58 260.14 341.52 260.61 340.98 260.92L335.24 264.24C334.7 264.55 333.89 264.58 333.42 264.32V264.31Z" fill="#06033E"/>
<path d="M342.37 269.47L336.58 266.12C336.11 265.85 336.17 265.38 336.71 265.07L342.45 261.76C342.99 261.45 343.8 261.42 344.27 261.68L350.06 265.03C350.53 265.3 350.47 265.77 349.93 266.08L344.19 269.4C343.65 269.71 342.84 269.74 342.37 269.48V269.47Z" fill="#06033E"/>
<path d="M351.32 274.64L345.53 271.29C345.06 271.02 345.12 270.55 345.66 270.24L351.4 266.93C351.94 266.62 352.75 266.59 353.22 266.85L359.01 270.2C359.48 270.47 359.42 270.94 358.88 271.25L353.14 274.57C352.6 274.88 351.79 274.91 351.32 274.65V274.64Z" fill="#06033E"/>
<path d="M360.27 279.81L354.48 276.46C354.01 276.19 354.07 275.72 354.61 275.41L360.35 272.1C360.89 271.79 361.7 271.76 362.17 272.02L367.96 275.37C368.43 275.64 368.37 276.11 367.83 276.42L362.09 279.74C361.55 280.05 360.74 280.08 360.27 279.82V279.81Z" fill="#06033E"/>
<path d="M237.51 239.11L220.44 229.26C219.97 228.99 220.03 228.52 220.57 228.21L226.31 224.9C226.85 224.59 227.66 224.56 228.13 224.82L245.2 234.67C245.67 234.94 245.61 235.41 245.07 235.72L239.33 239.03C238.79 239.34 237.98 239.37 237.51 239.11Z" fill="#06033E"/>
<path d="M347.46 302.59L330.39 292.74C329.92 292.47 329.98 292 330.52 291.69L336.26 288.37C336.8 288.06 337.61 288.03 338.08 288.29L355.15 298.14C355.62 298.41 355.56 298.88 355.02 299.19L349.28 302.51C348.74 302.82 347.93 302.85 347.46 302.59Z" fill="#06033E"/>
<path d="M311.67 293.34L305.88 289.99C305.41 289.72 305.47 289.25 306.01 288.94L312.85 284.99C313.39 284.68 314.2 284.65 314.67 284.91L320.46 288.26C320.93 288.53 320.87 289 320.33 289.31L313.49 293.26C312.95 293.57 312.14 293.6 311.67 293.34Z" fill="#06033E"/>
<path d="M246.68 255.82L237.41 250.47C236.94 250.2 237 249.73 237.54 249.42L244.38 245.47C244.92 245.16 245.73 245.13 246.2 245.39L255.47 250.74C255.94 251.01 255.88 251.48 255.34 251.79L248.5 255.74C247.96 256.05 247.15 256.08 246.68 255.82Z" fill="#06033E"/>
<path d="M303.04 288.36L293.77 283.01C293.3 282.74 293.36 282.27 293.9 281.96L300.74 278.01C301.28 277.7 302.09 277.67 302.56 277.93L311.83 283.28C312.3 283.55 312.24 284.02 311.7 284.33L304.86 288.28C304.32 288.59 303.51 288.62 303.04 288.36Z" fill="#06033E"/>
<path d="M259.59 263.27L250.32 257.92C249.85 257.65 249.91 257.18 250.45 256.87L257.29 252.92C257.83 252.61 258.64 252.58 259.11 252.84L268.38 258.19C268.85 258.46 268.79 258.93 268.25 259.24L261.41 263.19C260.87 263.5 260.06 263.53 259.59 263.27Z" fill="#06033E"/>
<path d="M259.17 252.88L299.46 276.14C299.96 276.43 299.96 276.9 299.46 277.19L292.48 281.22C291.98 281.51 291.17 281.51 290.67 281.22L250.38 257.96L259.17 252.89V252.88Z" fill="#06033E"/>
<path d="M336.68 302.7L343.14 306.43C343.52 306.65 343.47 307.03 343.03 307.29L340.23 308.91C339.79 309.16 339.12 309.19 338.74 308.97L332.29 305.24C331.91 305.02 331.96 304.64 332.4 304.38L335.2 302.76C335.64 302.51 336.31 302.48 336.69 302.7H336.68Z" fill="#06033E"/>
<path d="M327.66 297.5L334.12 301.23C334.5 301.45 334.45 301.83 334.01 302.09L331.21 303.71C330.77 303.96 330.1 303.99 329.72 303.77L323.27 300.04C322.89 299.82 322.94 299.44 323.38 299.18L326.18 297.56C326.62 297.31 327.29 297.28 327.67 297.5H327.66Z" fill="#06033E"/>
<path d="M318.71 292.33L325.17 296.06C325.55 296.28 325.5 296.66 325.06 296.92L322.26 298.54C321.82 298.79 321.15 298.82 320.77 298.6L314.31 294.87C313.93 294.65 313.98 294.27 314.42 294.01L317.22 292.39C317.66 292.14 318.33 292.11 318.71 292.33Z" fill="#06033E"/>
<path d="M332.6 294.64L339.05 298.37C339.43 298.59 339.38 298.97 338.94 299.23L336.14 300.85C335.7 301.1 335.03 301.13 334.65 300.91L328.2 297.18C327.82 296.96 327.87 296.58 328.31 296.32L331.11 294.7C331.55 294.45 332.22 294.42 332.6 294.64Z" fill="#06033E"/>
</g>
<g opacity="0.4">
<path d="M216.36 238.31L210.57 234.96C210.1 234.69 210.16 234.22 210.7 233.91L217.54 229.96C218.08 229.65 218.89 229.62 219.36 229.88L225.15 233.23C225.62 233.5 225.56 233.97 225.02 234.28L218.18 238.23C217.64 238.54 216.83 238.57 216.36 238.31Z" fill="#06033E"/>
<path d="M225.31 243.48L219.52 240.13C219.05 239.86 219.11 239.39 219.65 239.08L226.49 235.13C227.03 234.82 227.84 234.79 228.31 235.05L234.1 238.4C234.57 238.67 234.51 239.14 233.97 239.45L227.13 243.4C226.59 243.71 225.78 243.74 225.31 243.48Z" fill="#06033E"/>
<path d="M234.26 248.64L228.47 245.29C228 245.02 228.06 244.55 228.6 244.24L235.44 240.29C235.98 239.98 236.79 239.95 237.26 240.21L243.05 243.56C243.52 243.83 243.46 244.3 242.92 244.61L236.08 248.56C235.54 248.87 234.73 248.9 234.26 248.64Z" fill="#06033E"/>
<path d="M246.63 244.38L240.84 241.03C240.37 240.76 240.43 240.29 240.97 239.98L246.71 236.67C247.25 236.36 248.06 236.33 248.53 236.59L254.32 239.94C254.79 240.21 254.73 240.68 254.19 240.99L248.45 244.3C247.91 244.61 247.1 244.64 246.63 244.38Z" fill="#06033E"/>
<path d="M255.58 249.54L249.79 246.19C249.32 245.92 249.38 245.45 249.92 245.14L255.66 241.83C256.2 241.52 257.01 241.49 257.48 241.75L263.27 245.1C263.74 245.37 263.68 245.84 263.14 246.15L257.4 249.46C256.86 249.77 256.05 249.8 255.58 249.54Z" fill="#06033E"/>
<path d="M264.53 254.71L258.74 251.36C258.27 251.09 258.33 250.62 258.87 250.31L264.61 247C265.15 246.69 265.96 246.66 266.43 246.92L272.22 250.27C272.69 250.54 272.63 251.01 272.09 251.32L266.35 254.63C265.81 254.94 265 254.97 264.53 254.71Z" fill="#06033E"/>
<path d="M273.48 259.88L267.69 256.53C267.22 256.26 267.28 255.79 267.82 255.48L273.56 252.17C274.1 251.86 274.91 251.83 275.38 252.09L281.17 255.44C281.64 255.71 281.58 256.18 281.04 256.49L275.3 259.8C274.76 260.11 273.95 260.14 273.48 259.88Z" fill="#06033E"/>
<path d="M282.43 265.04L276.64 261.69C276.17 261.42 276.23 260.95 276.77 260.64L282.51 257.33C283.05 257.02 283.86 256.99 284.33 257.25L290.12 260.6C290.59 260.87 290.53 261.34 289.99 261.65L284.25 264.96C283.71 265.27 282.9 265.3 282.43 265.04Z" fill="#06033E"/>
<path d="M291.38 270.21L285.59 266.86C285.12 266.59 285.18 266.12 285.72 265.81L291.46 262.5C292 262.19 292.81 262.16 293.28 262.42L299.07 265.77C299.54 266.04 299.48 266.51 298.94 266.82L293.2 270.13C292.66 270.44 291.85 270.47 291.38 270.21Z" fill="#06033E"/>
<path d="M300.33 275.38L294.54 272.03C294.07 271.76 294.13 271.29 294.67 270.98L300.41 267.67C300.95 267.36 301.76 267.33 302.23 267.59L308.02 270.94C308.49 271.21 308.43 271.68 307.89 271.99L302.15 275.3C301.61 275.61 300.8 275.64 300.33 275.38Z" fill="#06033E"/>
<path d="M309.28 280.54L303.49 277.19C303.02 276.92 303.08 276.45 303.62 276.14L309.36 272.83C309.9 272.52 310.71 272.49 311.18 272.75L316.97 276.1C317.44 276.37 317.38 276.84 316.84 277.15L311.1 280.47C310.56 280.78 309.75 280.81 309.28 280.55V280.54Z" fill="#06033E"/>
<path d="M318.23 285.71L312.44 282.36C311.97 282.09 312.03 281.62 312.57 281.31L318.31 278C318.85 277.69 319.66 277.66 320.13 277.92L325.92 281.27C326.39 281.54 326.33 282.01 325.79 282.32L320.05 285.64C319.51 285.95 318.7 285.98 318.23 285.72V285.71Z" fill="#06033E"/>
<path d="M327.18 290.88L321.39 287.53C320.92 287.26 320.98 286.79 321.52 286.48L327.26 283.17C327.8 282.86 328.61 282.83 329.08 283.09L334.87 286.44C335.34 286.71 335.28 287.18 334.74 287.49L329 290.81C328.46 291.12 327.65 291.15 327.18 290.89V290.88Z" fill="#06033E"/>
<path d="M259.82 241.93L254.03 238.58C253.56 238.31 253.62 237.84 254.16 237.53L259.9 234.21C260.44 233.9 261.25 233.87 261.72 234.13L267.51 237.48C267.98 237.75 267.92 238.22 267.38 238.53L261.64 241.84C261.1 242.15 260.29 242.18 259.82 241.92V241.93Z" fill="#06033E"/>
<path d="M250.74 236.69L244.95 233.34C244.48 233.07 244.54 232.6 245.08 232.29L250.82 228.97C251.36 228.66 252.17 228.63 252.64 228.89L258.43 232.24C258.9 232.51 258.84 232.98 258.3 233.29L252.56 236.6C252.02 236.91 251.21 236.94 250.74 236.68V236.69Z" fill="#06033E"/>
<path d="M241.64 231.43L229.16 224.22C228.69 223.95 228.75 223.48 229.29 223.17L235.03 219.86C235.57 219.55 236.38 219.52 236.85 219.78L249.33 226.99C249.8 227.26 249.74 227.73 249.2 228.04L243.46 231.35C242.92 231.66 242.11 231.69 241.64 231.43Z" fill="#06033E"/>
<path d="M248 225.05L237.87 219.2C237.4 218.93 237.46 218.46 238 218.15L243.74 214.83C244.28 214.52 245.09 214.49 245.56 214.75L255.69 220.6C256.16 220.87 256.1 221.34 255.56 221.65L249.82 224.96C249.28 225.27 248.47 225.3 248 225.04V225.05Z" fill="#06033E"/>
<path d="M268.77 247.1L262.98 243.75C262.51 243.48 262.57 243.01 263.11 242.7L268.85 239.38C269.39 239.07 270.2 239.04 270.67 239.3L276.46 242.65C276.93 242.92 276.87 243.39 276.33 243.7L270.59 247.01C270.05 247.32 269.24 247.35 268.77 247.09V247.1Z" fill="#06033E"/>
<path d="M277.72 252.26L271.93 248.91C271.46 248.64 271.52 248.17 272.06 247.86L277.8 244.54C278.34 244.23 279.15 244.2 279.62 244.46L285.41 247.81C285.88 248.08 285.82 248.55 285.28 248.86L279.54 252.17C279 252.48 278.19 252.51 277.72 252.25V252.26Z" fill="#06033E"/>
<path d="M286.67 257.43L280.88 254.08C280.41 253.81 280.47 253.34 281.01 253.03L286.75 249.72C287.29 249.41 288.1 249.38 288.57 249.64L294.36 252.99C294.83 253.26 294.77 253.73 294.23 254.04L288.49 257.35C287.95 257.66 287.14 257.69 286.67 257.43Z" fill="#06033E"/>
<path d="M295.62 262.6L289.83 259.25C289.36 258.98 289.42 258.51 289.96 258.2L295.7 254.89C296.24 254.58 297.05 254.55 297.52 254.81L303.31 258.16C303.78 258.43 303.72 258.9 303.18 259.21L297.44 262.52C296.9 262.83 296.09 262.86 295.62 262.6Z" fill="#06033E"/>
<path d="M304.57 267.76L298.78 264.41C298.31 264.14 298.37 263.67 298.91 263.36L304.65 260.05C305.19 259.74 306 259.71 306.47 259.97L312.26 263.32C312.73 263.59 312.67 264.06 312.13 264.37L306.39 267.68C305.85 267.99 305.04 268.02 304.57 267.76Z" fill="#06033E"/>
<path d="M313.51 272.93L307.72 269.58C307.25 269.31 307.31 268.84 307.85 268.53L313.59 265.22C314.13 264.91 314.94 264.88 315.41 265.14L321.2 268.49C321.67 268.76 321.61 269.23 321.07 269.54L315.33 272.85C314.79 273.16 313.98 273.19 313.51 272.93Z" fill="#06033E"/>
<path d="M322.46 278.1L316.67 274.75C316.2 274.48 316.26 274.01 316.8 273.7L322.54 270.39C323.08 270.08 323.89 270.05 324.36 270.31L330.15 273.66C330.62 273.93 330.56 274.4 330.02 274.71L324.28 278.02C323.74 278.33 322.93 278.36 322.46 278.1Z" fill="#06033E"/>
<path d="M331.41 283.27L325.62 279.92C325.15 279.65 325.21 279.18 325.75 278.87L331.49 275.56C332.03 275.25 332.84 275.22 333.31 275.48L339.1 278.83C339.57 279.1 339.51 279.57 338.97 279.88L333.23 283.19C332.69 283.5 331.88 283.53 331.41 283.27Z" fill="#06033E"/>
<path d="M340.36 288.43L334.57 285.08C334.1 284.81 334.16 284.34 334.7 284.03L340.44 280.72C340.98 280.41 341.79 280.38 342.26 280.64L348.05 283.99C348.52 284.26 348.46 284.73 347.92 285.04L342.18 288.35C341.64 288.66 340.83 288.69 340.36 288.43Z" fill="#06033E"/>
<path d="M356.27 297.62L343.63 290.32C343.16 290.05 343.22 289.58 343.76 289.27L349.5 285.95C350.04 285.64 350.85 285.61 351.32 285.87L363.96 293.17C364.43 293.44 364.37 293.91 363.83 294.22L358.09 297.53C357.55 297.84 356.74 297.87 356.27 297.61V297.62Z" fill="#06033E"/>
<path d="M373.69 287.56L363.02 281.4C362.55 281.13 362.61 280.66 363.15 280.35L368.89 277.03C369.43 276.72 370.24 276.69 370.71 276.95L381.38 283.11C381.85 283.38 381.79 283.85 381.25 284.16L375.51 287.48C374.97 287.79 374.16 287.82 373.69 287.56Z" fill="#06033E"/>
<path d="M284.44 246.09L278.65 242.74C278.18 242.47 278.24 242 278.78 241.69L284.52 238.38C285.06 238.07 285.87 238.04 286.34 238.3L292.13 241.65C292.6 241.92 292.54 242.39 292 242.7L286.26 246.02C285.72 246.33 284.91 246.36 284.44 246.1V246.09Z" fill="#06033E"/>
<path d="M275.27 240.79L269.48 237.44C269.01 237.17 269.07 236.7 269.61 236.39L275.35 233.07C275.89 232.76 276.7 232.73 277.17 232.99L282.96 236.34C283.43 236.61 283.37 237.08 282.83 237.39L277.09 240.7C276.55 241.01 275.74 241.04 275.27 240.78V240.79Z" fill="#06033E"/>
<path d="M266.1 235.5L260.31 232.15C259.84 231.88 259.9 231.41 260.44 231.1L266.18 227.79C266.72 227.48 267.53 227.45 268 227.71L273.79 231.06C274.26 231.33 274.2 231.8 273.66 232.11L267.92 235.43C267.38 235.74 266.57 235.77 266.1 235.51V235.5Z" fill="#06033E"/>
<path d="M256.93 230.2L251.14 226.85C250.67 226.58 250.73 226.11 251.27 225.8L257.01 222.48C257.55 222.17 258.36 222.14 258.83 222.4L264.62 225.75C265.09 226.02 265.03 226.49 264.49 226.8L258.75 230.11C258.21 230.42 257.4 230.45 256.93 230.19V230.2Z" fill="#06033E"/>
<path d="M293.39 251.25L287.6 247.9C287.13 247.63 287.19 247.16 287.73 246.85L293.47 243.53C294.01 243.22 294.82 243.19 295.29 243.45L301.08 246.8C301.55 247.07 301.49 247.54 300.95 247.85L295.21 251.17C294.67 251.48 293.86 251.51 293.39 251.25Z" fill="#06033E"/>
<path d="M302.34 256.42L296.55 253.07C296.08 252.8 296.14 252.33 296.68 252.02L302.42 248.7C302.96 248.39 303.77 248.36 304.24 248.62L310.03 251.97C310.5 252.24 310.44 252.71 309.9 253.02L304.16 256.34C303.62 256.65 302.81 256.68 302.34 256.42Z" fill="#06033E"/>
<path d="M311.29 261.59L305.5 258.24C305.03 257.97 305.09 257.5 305.63 257.19L311.37 253.87C311.91 253.56 312.72 253.53 313.19 253.79L318.98 257.14C319.45 257.41 319.39 257.88 318.85 258.19L313.11 261.51C312.57 261.82 311.76 261.85 311.29 261.59Z" fill="#06033E"/>
<path d="M320.24 266.75L314.45 263.4C313.98 263.13 314.04 262.66 314.58 262.35L320.32 259.03C320.86 258.72 321.67 258.69 322.14 258.95L327.93 262.3C328.4 262.57 328.34 263.04 327.8 263.35L322.06 266.67C321.52 266.98 320.71 267.01 320.24 266.75Z" fill="#06033E"/>
<path d="M329.19 271.92L323.4 268.57C322.93 268.3 322.99 267.83 323.53 267.52L329.27 264.2C329.81 263.89 330.62 263.86 331.09 264.12L336.88 267.47C337.35 267.74 337.29 268.21 336.75 268.52L331.01 271.84C330.47 272.15 329.66 272.18 329.19 271.92Z" fill="#06033E"/>
<path d="M338.14 277.09L332.35 273.74C331.88 273.47 331.94 273 332.48 272.69L338.22 269.37C338.76 269.06 339.57 269.03 340.04 269.29L345.83 272.64C346.3 272.91 346.24 273.38 345.7 273.69L339.96 277.01C339.42 277.32 338.61 277.35 338.14 277.09Z" fill="#06033E"/>
<path d="M347.08 282.25L341.29 278.9C340.82 278.63 340.88 278.16 341.42 277.85L347.16 274.53C347.7 274.22 348.51 274.19 348.98 274.45L354.77 277.8C355.24 278.07 355.18 278.54 354.64 278.85L348.9 282.17C348.36 282.48 347.55 282.51 347.08 282.25Z" fill="#06033E"/>
<path d="M356.03 287.42L350.24 284.07C349.77 283.8 349.83 283.33 350.37 283.02L356.11 279.7C356.65 279.39 357.46 279.36 357.93 279.62L363.72 282.97C364.19 283.24 364.13 283.71 363.59 284.02L357.85 287.34C357.31 287.65 356.5 287.68 356.03 287.42Z" fill="#06033E"/>
<path d="M364.98 292.59L359.19 289.24C358.72 288.97 358.78 288.5 359.32 288.19L365.06 284.87C365.6 284.56 366.41 284.53 366.88 284.79L372.67 288.14C373.14 288.41 373.08 288.88 372.54 289.19L366.8 292.51C366.26 292.82 365.45 292.85 364.98 292.59Z" fill="#06033E"/>
<path d="M279.73 233.31L273.94 229.96C273.47 229.69 273.53 229.22 274.07 228.91L279.81 225.6C280.35 225.29 281.16 225.26 281.63 225.52L287.42 228.87C287.89 229.14 287.83 229.61 287.29 229.92L281.55 233.23C281.01 233.54 280.2 233.57 279.73 233.31Z" fill="#06033E"/>
<path d="M270.82 228.17L265.03 224.82C264.56 224.55 264.62 224.08 265.16 223.77L270.9 220.45C271.44 220.14 272.25 220.11 272.72 220.37L278.51 223.72C278.98 223.99 278.92 224.46 278.38 224.77L272.64 228.09C272.1 228.4 271.29 228.43 270.82 228.17Z" fill="#06033E"/>
<path d="M261.92 223.02L256.13 219.67C255.66 219.4 255.72 218.93 256.26 218.62L262 215.3C262.54 214.99 263.35 214.96 263.82 215.22L269.61 218.57C270.08 218.84 270.02 219.31 269.48 219.62L263.74 222.94C263.2 223.25 262.39 223.28 261.92 223.02Z" fill="#06033E"/>
<path d="M253.01 217.88L247.22 214.53C246.75 214.26 246.81 213.79 247.35 213.48L253.09 210.17C253.63 209.86 254.44 209.83 254.91 210.09L260.7 213.44C261.17 213.71 261.11 214.18 260.57 214.49L254.83 217.8C254.29 218.11 253.48 218.14 253.01 217.88Z" fill="#06033E"/>
<path d="M262.17 212.6L256.38 209.25C255.91 208.98 255.97 208.51 256.51 208.2L258.41 207.1C258.95 206.79 259.76 206.76 260.23 207.02L266.02 210.37C266.49 210.64 266.43 211.11 265.89 211.42L263.99 212.52C263.45 212.83 262.64 212.86 262.17 212.6Z" fill="#06033E"/>
<path d="M273.79 219.31L268 215.96C267.53 215.69 267.59 215.22 268.13 214.91L270.03 213.81C270.57 213.5 271.38 213.47 271.85 213.73L277.64 217.08C278.11 217.35 278.05 217.82 277.51 218.13L275.61 219.23C275.07 219.54 274.26 219.57 273.79 219.31Z" fill="#06033E"/>
<path d="M282.66 224.43L276.87 221.08C276.4 220.81 276.46 220.34 277 220.03L278.9 218.93C279.44 218.62 280.25 218.59 280.72 218.85L286.51 222.2C286.98 222.47 286.92 222.94 286.38 223.25L284.48 224.35C283.94 224.66 283.13 224.69 282.66 224.43Z" fill="#06033E"/>
<path d="M291.53 229.55L285.74 226.2C285.27 225.93 285.33 225.46 285.87 225.15L287.77 224.05C288.31 223.74 289.12 223.71 289.59 223.97L295.38 227.32C295.85 227.59 295.79 228.06 295.25 228.37L293.35 229.47C292.81 229.78 292 229.81 291.53 229.55Z" fill="#06033E"/>
<path d="M300.39 234.67L294.6 231.32C294.13 231.05 294.19 230.58 294.73 230.27L296.63 229.17C297.17 228.86 297.98 228.83 298.45 229.09L304.24 232.44C304.71 232.71 304.65 233.18 304.11 233.49L302.21 234.59C301.67 234.9 300.86 234.93 300.39 234.67Z" fill="#06033E"/>
<path d="M349.9 263.25L344.11 259.9C343.64 259.63 343.7 259.16 344.24 258.85L346.14 257.75C346.68 257.44 347.49 257.41 347.96 257.67L353.75 261.02C354.22 261.29 354.16 261.76 353.62 262.07L351.72 263.17C351.18 263.48 350.37 263.51 349.9 263.25Z" fill="#06033E"/>
<path d="M358.77 268.37L352.98 265.02C352.51 264.75 352.57 264.28 353.11 263.97L355.01 262.87C355.55 262.56 356.36 262.53 356.83 262.79L362.62 266.14C363.09 266.41 363.03 266.88 362.49 267.19L360.59 268.29C360.05 268.6 359.24 268.63 358.77 268.37Z" fill="#06033E"/>
<path d="M367.64 273.49L361.85 270.14C361.38 269.87 361.44 269.4 361.98 269.09L363.88 267.99C364.42 267.68 365.23 267.65 365.7 267.91L371.49 271.26C371.96 271.53 371.9 272 371.36 272.31L369.46 273.41C368.92 273.72 368.11 273.75 367.64 273.49Z" fill="#06033E"/>
<path d="M376.5 278.61L370.71 275.26C370.24 274.99 370.3 274.52 370.84 274.21L372.74 273.11C373.28 272.8 374.09 272.77 374.56 273.03L380.35 276.38C380.82 276.65 380.76 277.12 380.22 277.43L378.32 278.53C377.78 278.84 376.97 278.87 376.5 278.61Z" fill="#06033E"/>
<path d="M288.68 238.47L282.89 235.12C282.42 234.85 282.48 234.38 283.02 234.07L288.76 230.76C289.3 230.45 290.11 230.42 290.58 230.68L296.37 234.03C296.84 234.3 296.78 234.77 296.24 235.08L290.5 238.39C289.96 238.7 289.15 238.73 288.68 238.47Z" fill="#06033E"/>
<path d="M297.63 243.64L291.84 240.29C291.37 240.02 291.43 239.55 291.97 239.24L297.71 235.93C298.25 235.62 299.06 235.59 299.53 235.85L305.32 239.2C305.79 239.47 305.73 239.94 305.19 240.25L299.45 243.56C298.91 243.87 298.1 243.9 297.63 243.64Z" fill="#06033E"/>
<path d="M306.58 248.81L300.79 245.46C300.32 245.19 300.38 244.72 300.92 244.41L306.66 241.1C307.2 240.79 308.01 240.76 308.48 241.02L314.27 244.37C314.74 244.64 314.68 245.11 314.14 245.42L308.4 248.74C307.86 249.05 307.05 249.08 306.58 248.82V248.81Z" fill="#06033E"/>
<path d="M315.53 253.97L309.74 250.62C309.27 250.35 309.33 249.88 309.87 249.57L315.61 246.26C316.15 245.95 316.96 245.92 317.43 246.18L323.22 249.53C323.69 249.8 323.63 250.27 323.09 250.58L317.35 253.9C316.81 254.21 316 254.24 315.53 253.98V253.97Z" fill="#06033E"/>
<path d="M324.47 259.14L318.68 255.79C318.21 255.52 318.27 255.05 318.81 254.74L324.55 251.43C325.09 251.12 325.9 251.09 326.37 251.35L332.16 254.7C332.63 254.97 332.57 255.44 332.03 255.75L326.29 259.07C325.75 259.38 324.94 259.41 324.47 259.15V259.14Z" fill="#06033E"/>
<path d="M333.42 264.31L327.63 260.96C327.16 260.69 327.22 260.22 327.76 259.91L333.5 256.6C334.04 256.29 334.85 256.26 335.32 256.52L341.11 259.87C341.58 260.14 341.52 260.61 340.98 260.92L335.24 264.24C334.7 264.55 333.89 264.58 333.42 264.32V264.31Z" fill="#06033E"/>
<path d="M342.37 269.47L336.58 266.12C336.11 265.85 336.17 265.38 336.71 265.07L342.45 261.76C342.99 261.45 343.8 261.42 344.27 261.68L350.06 265.03C350.53 265.3 350.47 265.77 349.93 266.08L344.19 269.4C343.65 269.71 342.84 269.74 342.37 269.48V269.47Z" fill="#06033E"/>
<path d="M351.32 274.64L345.53 271.29C345.06 271.02 345.12 270.55 345.66 270.24L351.4 266.93C351.94 266.62 352.75 266.59 353.22 266.85L359.01 270.2C359.48 270.47 359.42 270.94 358.88 271.25L353.14 274.57C352.6 274.88 351.79 274.91 351.32 274.65V274.64Z" fill="#06033E"/>
<path d="M360.27 279.81L354.48 276.46C354.01 276.19 354.07 275.72 354.61 275.41L360.35 272.1C360.89 271.79 361.7 271.76 362.17 272.02L367.96 275.37C368.43 275.64 368.37 276.11 367.83 276.42L362.09 279.74C361.55 280.05 360.74 280.08 360.27 279.82V279.81Z" fill="#06033E"/>
<path d="M237.51 239.11L220.44 229.26C219.97 228.99 220.03 228.52 220.57 228.21L226.31 224.9C226.85 224.59 227.66 224.56 228.13 224.82L245.2 234.67C245.67 234.94 245.61 235.41 245.07 235.72L239.33 239.03C238.79 239.34 237.98 239.37 237.51 239.11Z" fill="#06033E"/>
<path d="M347.46 302.59L330.39 292.74C329.92 292.47 329.98 292 330.52 291.69L336.26 288.37C336.8 288.06 337.61 288.03 338.08 288.29L355.15 298.14C355.62 298.41 355.56 298.88 355.02 299.19L349.28 302.51C348.74 302.82 347.93 302.85 347.46 302.59Z" fill="#06033E"/>
<path d="M311.67 293.34L305.88 289.99C305.41 289.72 305.47 289.25 306.01 288.94L312.85 284.99C313.39 284.68 314.2 284.65 314.67 284.91L320.46 288.26C320.93 288.53 320.87 289 320.33 289.31L313.49 293.26C312.95 293.57 312.14 293.6 311.67 293.34Z" fill="#06033E"/>
<path d="M246.68 255.82L237.41 250.47C236.94 250.2 237 249.73 237.54 249.42L244.38 245.47C244.92 245.16 245.73 245.13 246.2 245.39L255.47 250.74C255.94 251.01 255.88 251.48 255.34 251.79L248.5 255.74C247.96 256.05 247.15 256.08 246.68 255.82Z" fill="#06033E"/>
<path d="M303.04 288.36L293.77 283.01C293.3 282.74 293.36 282.27 293.9 281.96L300.74 278.01C301.28 277.7 302.09 277.67 302.56 277.93L311.83 283.28C312.3 283.55 312.24 284.02 311.7 284.33L304.86 288.28C304.32 288.59 303.51 288.62 303.04 288.36Z" fill="#06033E"/>
<path d="M259.59 263.27L250.32 257.92C249.85 257.65 249.91 257.18 250.45 256.87L257.29 252.92C257.83 252.61 258.64 252.58 259.11 252.84L268.38 258.19C268.85 258.46 268.79 258.93 268.25 259.24L261.41 263.19C260.87 263.5 260.06 263.53 259.59 263.27Z" fill="#06033E"/>
<path d="M259.17 252.88L299.46 276.14C299.96 276.43 299.96 276.9 299.46 277.19L292.48 281.22C291.98 281.51 291.17 281.51 290.67 281.22L250.38 257.96L259.17 252.89V252.88Z" fill="#06033E"/>
<path d="M336.68 302.7L343.14 306.43C343.52 306.65 343.47 307.03 343.03 307.29L340.23 308.91C339.79 309.16 339.12 309.19 338.74 308.97L332.29 305.24C331.91 305.02 331.96 304.64 332.4 304.38L335.2 302.76C335.64 302.51 336.31 302.48 336.69 302.7H336.68Z" fill="#06033E"/>
<path d="M327.66 297.5L334.12 301.23C334.5 301.45 334.45 301.83 334.01 302.09L331.21 303.71C330.77 303.96 330.1 303.99 329.72 303.77L323.27 300.04C322.89 299.82 322.94 299.44 323.38 299.18L326.18 297.56C326.62 297.31 327.29 297.28 327.67 297.5H327.66Z" fill="#06033E"/>
<path d="M318.71 292.33L325.17 296.06C325.55 296.28 325.5 296.66 325.06 296.92L322.26 298.54C321.82 298.79 321.15 298.82 320.77 298.6L314.31 294.87C313.93 294.65 313.98 294.27 314.42 294.01L317.22 292.39C317.66 292.14 318.33 292.11 318.71 292.33Z" fill="#06033E"/>
<path d="M332.6 294.64L339.05 298.37C339.43 298.59 339.38 298.97 338.94 299.23L336.14 300.85C335.7 301.1 335.03 301.13 334.65 300.91L328.2 297.18C327.82 296.96 327.87 296.58 328.31 296.32L331.11 294.7C331.55 294.45 332.22 294.42 332.6 294.64Z" fill="#06033E"/>
</g>
<path d="M427.31 284.19L256.34 185.48C253.65 183.93 252.25 180.15 253.21 177.03L291.87 51.5C292.83 48.39 295.78 47.12 298.47 48.67L469.44 147.38C472.13 148.93 473.53 152.71 472.57 155.83L433.91 281.36C432.95 284.47 430 285.74 427.31 284.19Z" fill="url(#paint7_linear_8_1080)"/>
<path d="M425.7 279.79L259.87 183.97C257.3 182.48 255.95 178.87 256.87 175.89L293.83 55.88C294.75 52.9 297.57 51.69 300.15 53.18L465.98 149C468.55 150.49 469.9 154.1 468.98 157.08L432.02 277.09C431.1 280.07 428.28 281.28 425.7 279.79Z" fill="url(#paint8_linear_8_1080)"/>
<path opacity="0.4" d="M425.7 279.79L259.87 183.97C257.3 182.48 255.95 178.87 256.87 175.89L293.83 55.88C294.75 52.9 297.57 51.69 300.15 53.18L465.98 149C468.55 150.49 469.9 154.1 468.98 157.08L432.02 277.09C431.1 280.07 428.28 281.28 425.7 279.79Z" fill="#06033E"/>
<path opacity="0.4" d="M425.7 279.79L259.87 183.97C257.3 182.48 255.95 178.87 256.87 175.89L293.83 55.88C294.75 52.9 297.57 51.69 300.15 53.18L465.98 149C468.55 150.49 469.9 154.1 468.98 157.08L432.02 277.09C431.1 280.07 428.28 281.28 425.7 279.79Z" fill="#06033E"/>
<path opacity="0.5" d="M416.79 243.12L304.53 178.31C302.76 177.29 301.84 174.81 302.47 172.76L327.86 90.33C328.49 88.29 330.43 87.46 332.19 88.47L444.45 153.28C446.22 154.3 447.14 156.78 446.51 158.83L421.12 241.26C420.49 243.3 418.55 244.13 416.79 243.12Z" fill="#043D11"/>
<path d="M401.62 245.11L289.36 180.3C287.59 179.28 286.67 176.8 287.3 174.75L312.69 92.32C313.32 90.28 315.26 89.45 317.02 90.46L429.28 155.27C431.05 156.29 431.97 158.77 431.34 160.82L405.95 243.25C405.32 245.29 403.38 246.12 401.62 245.11Z" fill="url(#paint9_linear_8_1080)"/>
<g opacity="0.5">
<path d="M401.62 245.11L289.36 180.3C287.59 179.28 286.67 176.8 287.3 174.75L312.69 92.32C313.32 90.28 315.26 89.45 317.02 90.46L429.28 155.27C431.05 156.29 431.97 158.77 431.34 160.82L405.95 243.25C405.32 245.29 403.38 246.12 401.62 245.11Z" fill="#043D0B"/>
</g>
<path d="M429.28 155.28L317.02 90.47C315.91 89.83 314.74 89.92 313.86 90.58C314.39 90.56 314.94 90.68 315.48 91L427.74 155.81C429.5 156.83 430.43 159.31 429.8 161.36L404.41 243.79C404.18 244.55 403.76 245.15 403.23 245.54C404.43 245.5 405.51 244.69 405.94 243.27L431.33 160.84C431.96 158.8 431.04 156.31 429.27 155.29L429.28 155.28Z" fill="white"/>
<path opacity="0.4" d="M260.04 312.42C258.49 312.42 257.01 312.1 255.88 311.45L210.9 285.48C209.71 284.79 209.05 283.81 209.05 282.71C209.05 281.44 209.95 280.18 211.53 279.27L234.68 265.9C237.51 264.27 241.66 264.11 244.14 265.54L289.12 291.51C290.31 292.2 290.97 293.18 290.97 294.28C290.97 295.55 290.07 296.81 288.49 297.72L265.34 311.09C263.8 311.98 261.88 312.43 260.04 312.43V312.42ZM240.01 265.88C238.38 265.88 236.66 266.27 235.34 267.03L212.19 280.4C211.03 281.07 210.36 281.92 210.36 282.71C210.36 283.5 211.01 284.04 211.56 284.36L256.54 310.33C258.58 311.51 262.31 311.34 264.7 309.96L287.85 296.59C289.01 295.92 289.68 295.08 289.68 294.28C289.68 293.48 289.03 292.95 288.48 292.63L243.5 266.66C242.59 266.13 241.33 265.87 240.01 265.87V265.88Z" fill="#06033E"/>
<path d="M344.37 133.71L337.43 129.7C336.79 129.33 336.44 128.43 336.66 127.7C336.88 126.97 337.58 126.68 338.22 127.05L345.16 131.06C345.8 131.43 346.15 132.33 345.93 133.06C345.71 133.79 345.01 134.08 344.37 133.71Z" fill="white"/>
<path d="M360.9 143.26L350.67 137.35C350.03 136.98 349.68 136.08 349.9 135.35C350.12 134.62 350.82 134.33 351.46 134.7L361.69 140.61C362.33 140.98 362.68 141.88 362.46 142.61C362.24 143.34 361.54 143.63 360.9 143.26Z" fill="white"/>
<path d="M330.37 164.61L323.43 160.6C322.79 160.23 322.44 159.33 322.66 158.6C322.88 157.87 323.58 157.58 324.22 157.95L331.16 161.96C331.8 162.33 332.15 163.23 331.93 163.96C331.71 164.69 331.01 164.98 330.37 164.61Z" fill="white"/>
<path d="M345.11 173.12L334.88 167.21C334.24 166.84 333.89 165.94 334.11 165.21C334.33 164.48 335.03 164.19 335.67 164.56L345.9 170.47C346.54 170.84 346.89 171.74 346.67 172.47C346.45 173.2 345.75 173.49 345.11 173.12Z" fill="white"/>
<path d="M323.58 128.2L319.24 125.7C318.6 125.33 318.25 124.43 318.47 123.7C318.69 122.97 319.39 122.68 320.03 123.05L324.37 125.55C325.01 125.92 325.36 126.82 325.14 127.55C324.92 128.28 324.22 128.57 323.58 128.2Z" fill="white"/>
<path d="M336.62 142.23L323.37 134.58C322.73 134.21 322.38 133.31 322.6 132.58C322.82 131.85 323.52 131.56 324.16 131.93L337.41 139.58C338.05 139.95 338.4 140.85 338.18 141.58C337.96 142.31 337.26 142.6 336.62 142.23Z" fill="white"/>
<path d="M324.41 148.17L320.07 145.67C319.43 145.3 319.08 144.4 319.3 143.67C319.52 142.94 320.22 142.65 320.86 143.02L325.2 145.52C325.84 145.89 326.19 146.79 325.97 147.52C325.75 148.25 325.05 148.54 324.41 148.17Z" fill="white"/>
<path d="M346.71 187.03L335.13 180.34C334.49 179.97 334.14 179.07 334.36 178.34C334.58 177.61 335.28 177.32 335.92 177.69L347.5 184.38C348.14 184.75 348.49 185.65 348.27 186.38C348.05 187.11 347.35 187.4 346.71 187.03Z" fill="white"/>
<path d="M319.55 158.36L316.77 156.75C316.13 156.38 315.78 155.48 316 154.75C316.22 154.02 316.92 153.73 317.56 154.1L320.34 155.71C320.98 156.08 321.33 156.98 321.11 157.71C320.89 158.44 320.19 158.73 319.55 158.36Z" fill="white"/>
<path d="M316.91 169.83L313.45 167.83C312.81 167.46 312.46 166.56 312.68 165.83C312.9 165.1 313.6 164.81 314.24 165.18L317.7 167.18C318.34 167.55 318.69 168.45 318.47 169.18C318.25 169.91 317.55 170.2 316.91 169.83Z" fill="white"/>
<path d="M330.36 177.59L321.25 172.33C320.61 171.96 320.26 171.06 320.48 170.33C320.7 169.6 321.4 169.31 322.04 169.68L331.15 174.94C331.79 175.31 332.14 176.21 331.92 176.94C331.7 177.67 331 177.96 330.36 177.59Z" fill="white"/>
<path d="M318.36 177.16L311.81 173.38C311.17 173.01 310.82 172.11 311.04 171.38C311.26 170.65 311.96 170.36 312.6 170.73L319.15 174.51C319.79 174.88 320.14 175.78 319.92 176.51C319.7 177.24 319 177.53 318.36 177.16Z" fill="white"/>
<path d="M356.64 192.8L352.43 190.37C351.79 190 351.44 189.1 351.66 188.37C351.88 187.64 352.58 187.35 353.22 187.72L357.43 190.15C358.07 190.52 358.42 191.42 358.2 192.15C357.98 192.88 357.28 193.17 356.64 192.8Z" fill="white"/>
<path d="M340.53 157.48L328.95 150.79C328.31 150.42 327.96 149.52 328.18 148.79C328.4 148.06 329.1 147.77 329.74 148.14L341.32 154.83C341.96 155.2 342.31 156.1 342.09 156.83C341.87 157.56 341.17 157.85 340.53 157.48Z" fill="white"/>
<path d="M341.91 151.78L321.73 140.13C321.09 139.76 320.74 138.86 320.96 138.13C321.18 137.4 321.88 137.11 322.52 137.48L342.7 149.13C343.34 149.5 343.69 150.4 343.47 151.13C343.25 151.86 342.55 152.15 341.91 151.78Z" fill="#E8975B"/>
<path d="M330 157.9L318.42 151.21C317.78 150.84 317.43 149.94 317.65 149.21C317.87 148.48 318.57 148.19 319.21 148.56L330.79 155.25C331.43 155.62 331.78 156.52 331.56 157.25C331.34 157.98 330.64 158.27 330 157.9Z" fill="#E8975B"/>
<path d="M349.32 162.55L345.11 160.12C344.47 159.75 344.12 158.85 344.34 158.12C344.56 157.39 345.26 157.1 345.9 157.47L350.11 159.9C350.75 160.27 351.1 161.17 350.88 161.9C350.66 162.63 349.96 162.92 349.32 162.55Z" fill="#E8975B"/>
<path d="M392.11 161.28L367.2 146.9C366.56 146.53 366.21 145.63 366.43 144.9C366.65 144.17 367.35 143.88 367.99 144.25L392.91 158.63C393.55 159 393.9 159.9 393.68 160.63C393.46 161.36 392.76 161.65 392.12 161.28H392.11Z" fill="#E8975B"/>
<path d="M329.03 170.33L315.11 162.29C314.47 161.92 314.12 161.02 314.34 160.29C314.56 159.56 315.26 159.27 315.9 159.64L329.82 167.68C330.46 168.05 330.81 168.95 330.59 169.68C330.37 170.41 329.67 170.7 329.03 170.33Z" fill="#F8359E"/>
<path d="M331.13 126.07L320.9 120.16C320.26 119.79 319.91 118.89 320.13 118.16C320.35 117.43 321.05 117.14 321.69 117.51L331.92 123.42C332.56 123.79 332.91 124.69 332.69 125.42C332.47 126.15 331.77 126.44 331.13 126.07Z" fill="#F8359E"/>
<path d="M316.22 182.42L304.37 175.58C303.73 175.21 303.38 174.31 303.6 173.58C303.82 172.85 304.52 172.56 305.16 172.93L317.01 179.77C317.65 180.14 318 181.04 317.78 181.77C317.56 182.5 316.86 182.79 316.22 182.42Z" fill="#E8975B"/>
<path d="M394.91 148.46L389.84 145.53C389.37 145.26 389.12 144.61 389.28 144.07C389.44 143.54 389.95 143.32 390.42 143.6L395.49 146.53C395.96 146.8 396.21 147.45 396.05 147.99C395.89 148.52 395.38 148.74 394.91 148.46Z" fill="white"/>
<path d="M404.59 154.05L399.52 151.12C399.05 150.85 398.8 150.2 398.96 149.66C399.12 149.13 399.63 148.91 400.1 149.19L405.17 152.12C405.64 152.39 405.89 153.04 405.73 153.58C405.57 154.11 405.06 154.33 404.59 154.05Z" fill="white"/>
<path d="M414.26 159.64L409.19 156.71C408.72 156.44 408.47 155.79 408.63 155.25C408.79 154.72 409.3 154.5 409.77 154.78L414.84 157.71C415.31 157.98 415.56 158.63 415.4 159.17C415.24 159.7 414.73 159.92 414.26 159.64Z" fill="white"/>
<path d="M419.02 162.39L418.87 162.3C418.4 162.03 418.15 161.38 418.31 160.84C418.47 160.31 418.98 160.09 419.45 160.37L419.6 160.46C420.07 160.73 420.32 161.38 420.16 161.92C420 162.45 419.49 162.67 419.02 162.39Z" fill="#F8359E"/>
<path d="M157.19 221.75C153.98 221.75 150.77 220.92 147.91 219.27L113.93 199.65C112.46 198.8 111.58 197.28 111.58 195.58C111.58 193.88 112.46 192.36 113.93 191.51L147.91 171.89C153.64 168.58 160.75 168.58 166.48 171.89L200.46 191.51C201.93 192.36 202.81 193.88 202.81 195.58C202.81 197.28 201.93 198.8 200.46 199.65L166.48 219.27C163.62 220.92 160.41 221.75 157.19 221.75ZM149.01 217.35C154.06 220.26 160.32 220.26 165.37 217.35L199.35 197.73C200.13 197.28 200.6 196.47 200.6 195.57C200.6 194.67 200.13 193.86 199.35 193.41L165.37 173.79C160.32 170.88 154.05 170.88 149.01 173.79L115.03 193.41C114.25 193.86 113.78 194.67 113.78 195.57C113.78 196.47 114.25 197.28 115.03 197.73L149.01 217.35Z" fill="url(#paint10_linear_8_1080)"/>
<path opacity="0.6" d="M173.53 205.57C164.41 210.83 149.64 210.83 140.52 205.57C131.4 200.31 131.4 191.77 140.52 186.51C149.64 181.25 164.41 181.25 173.53 186.51C182.65 191.77 182.65 200.31 173.53 205.57Z" fill="#020230"/>
<path d="M191.62 99.99H125.14L131.32 171.97C131.32 175.97 133.96 179.97 139.25 183.02C149.82 189.12 166.95 189.12 177.52 183.02C182.8 179.97 185.44 175.97 185.44 171.97L191.62 99.99Z" fill="url(#paint11_radial_8_1080)"/>
<path opacity="0.4" d="M191.62 99.99H125.14L126.16 111.83C127.68 113.78 129.73 115.66 132.32 117.37C145.02 125.8 165.99 127.42 180.29 121.35L178.08 174C177.98 176.29 177.19 178.53 175.7 180.28C173.55 182.81 169.4 185.8 161.42 187.48C167.3 187.1 173 185.62 177.51 183.01C182.79 179.96 185.43 175.96 185.43 171.96L190.39 114.23L191.61 99.98L191.62 99.99Z" fill="#06033E"/>
<path opacity="0.4" d="M158.38 119.18C176.738 119.18 191.62 110.588 191.62 99.99C191.62 89.3916 176.738 80.8 158.38 80.8C140.022 80.8 125.14 89.3916 125.14 99.99C125.14 110.588 140.022 119.18 158.38 119.18Z" fill="#06033E"/>
<path opacity="0.4" d="M158.38 109.76C174.192 109.76 187.01 102.359 187.01 93.23C187.01 84.1007 174.192 76.7 158.38 76.7C142.568 76.7 129.75 84.1007 129.75 93.23C129.75 102.359 142.568 109.76 158.38 109.76Z" fill="#06033E"/>
<path d="M193.59 99.09V99.04C193.59 99.01 193.59 98.97 193.59 98.94L192.95 92.5L192.92 92.57C192.63 87.69 189.27 82.86 182.83 79.14C169.33 71.35 147.45 71.35 133.95 79.14C127.34 82.96 123.97 87.94 123.84 92.94V92.92L123.22 98.66C123.2 98.81 123.18 98.96 123.17 99.11V99.2C122.81 104.67 126.23 110.2 133.46 114.38C147.22 122.33 169.54 122.33 183.31 114.38C190.59 110.18 194.01 104.6 193.6 99.1L193.59 99.09Z" fill="url(#paint12_linear_8_1080)"/>
<path d="M158.38 109.76C174.192 109.76 187.01 102.359 187.01 93.23C187.01 84.1007 174.192 76.7 158.38 76.7C142.568 76.7 129.75 84.1007 129.75 93.23C129.75 102.359 142.568 109.76 158.38 109.76Z" fill="url(#paint13_linear_8_1080)"/>
<path d="M157.02 109.76C172.832 109.76 185.65 102.359 185.65 93.23C185.65 84.1007 172.832 76.7 157.02 76.7C141.208 76.7 128.39 84.1007 128.39 93.23C128.39 102.359 141.208 109.76 157.02 109.76Z" fill="url(#paint14_linear_8_1080)"/>
<path opacity="0.4" d="M141.53 84C152.71 77.54 170.84 77.54 182.02 84C182.16 84.08 182.28 84.17 182.42 84.26C181.34 83.3 180.08 82.38 178.62 81.54C167.44 75.08 149.31 75.08 138.13 81.54C127.09 87.91 126.97 98.19 137.73 104.66C130.55 98.26 131.81 89.61 141.53 84Z" fill="#06033E"/>
<path d="M138.14 84.41C149.32 77.95 167.45 77.95 178.63 84.41C183.59 87.27 186.34 90.92 186.9 94.66C187.6 89.97 184.85 85.13 178.63 81.54C167.45 75.08 149.32 75.08 138.14 81.54C131.92 85.13 129.16 89.97 129.87 94.66C130.43 90.92 133.19 87.27 138.14 84.41Z" fill="url(#paint15_linear_8_1080)"/>
<path d="M183.03 79.28C169.55 71.34 147.59 71.15 133.98 78.85C120.37 86.55 120.25 99.23 133.73 107.17C147.21 115.11 169.17 115.3 182.78 107.6C196.39 99.9 196.51 87.22 183.03 79.28ZM178.62 104.91C174.89 107.07 170.37 108.49 165.6 109.2L165.08 107.49C164.87 106.8 164.23 106.33 163.51 106.33H153.23C152.51 106.33 151.87 106.8 151.66 107.49L151.14 109.2C146.37 108.48 141.86 107.07 138.12 104.91C126.94 98.45 126.94 87.99 138.12 81.53C149.3 75.07 167.43 75.07 178.61 81.53C189.79 87.99 189.79 98.45 178.61 104.91H178.62Z" fill="url(#paint16_linear_8_1080)"/>
<path d="M178.63 80.32C167.45 73.86 149.32 73.86 138.14 80.32C132.28 83.7 129.5 88.19 129.78 92.62C130.04 88.6 132.82 84.62 138.14 81.54C149.32 75.08 167.45 75.08 178.63 81.54C183.95 84.61 186.73 88.59 186.99 92.62C187.27 88.19 184.49 83.7 178.63 80.32Z" fill="url(#paint17_linear_8_1080)"/>
<path d="M182.78 106.38C169.17 114.08 147.2 113.89 133.73 105.95C127.32 102.17 123.99 97.32 123.72 92.44C123.45 97.72 126.78 103.08 133.73 107.17C147.21 115.11 169.17 115.3 182.78 107.6C189.92 103.56 193.34 98.16 193.04 92.79C192.79 97.75 189.37 102.65 182.78 106.38Z" fill="url(#paint18_linear_8_1080)"/>
<path d="M161.58 108.44H155.18C154.821 108.44 154.53 108.731 154.53 109.09V109.45C154.53 109.809 154.821 110.1 155.18 110.1H161.58C161.939 110.1 162.23 109.809 162.23 109.45V109.09C162.23 108.731 161.939 108.44 161.58 108.44Z" fill="url(#paint19_linear_8_1080)"/>
<path d="M161.45 108.44H155.31C154.88 108.44 154.53 108.79 154.53 109.22V109.33C154.53 109.4 154.55 109.47 154.57 109.54C154.66 109.21 154.95 108.97 155.3 108.97H161.44C161.8 108.97 162.08 109.21 162.18 109.54C162.2 109.47 162.22 109.41 162.22 109.33V109.22C162.22 108.79 161.87 108.44 161.44 108.44H161.45Z" fill="url(#paint20_linear_8_1080)"/>
<path d="M159.47 164.35C158.67 167.35 155.59 169.14 152.59 168.34C149.59 167.54 147.8 164.46 148.6 161.46C149.4 158.46 152.23 157.61 155.23 158.41C158.23 159.21 160.27 161.35 159.47 164.35Z" fill="#37B780"/>
<path d="M163.9 158.42C162.77 159.53 161.32 159.38 160.36 158.4C159.4 157.42 159.29 155.97 160.42 154.86C161.55 153.75 163.7 153.21 164.67 154.19C165.63 155.17 165.04 157.31 163.91 158.42H163.9Z" fill="#37B780"/>
<path d="M157.95 154.54C157.69 156.01 156.5 156.7 155.22 156.47C153.94 156.24 153.06 155.19 153.32 153.72C153.58 152.25 154.94 150.65 156.21 150.87C157.49 151.1 158.21 153.07 157.95 154.54Z" fill="#37B780"/>
<path d="M151.1 153.86C151.67 155.24 151.03 156.46 149.83 156.95C148.63 157.44 147.32 157.03 146.75 155.64C146.18 154.26 146.46 152.18 147.67 151.69C148.87 151.2 150.53 152.47 151.1 153.86Z" fill="#37B780"/>
<path opacity="0.5" d="M160.56 109.27C160.56 109.27 179.15 103.04 171.62 81.68C164.09 60.32 149.44 53.81 155.34 36.73C155.34 36.73 146.09 50.56 154.73 69.27C163.37 87.98 165.27 85.83 165.17 94.78C165.05 105.41 156.46 109.26 156.46 109.26H160.55L160.56 109.27Z" fill="white"/>
<path opacity="0.5" d="M162.23 39.7C162.23 39.7 160.3 26.92 172.28 14.05C172.28 14.05 161.68 37.72 165.15 49.41C165.15 49.41 162.35 41.98 162.23 39.7Z" fill="white"/>
<defs>
<linearGradient id="paint0_linear_8_1080" x1="512.84" y1="334.17" x2="551.6" y2="334.17" gradientUnits="userSpaceOnUse">
<stop stop-color="#71FF6A"/>
<stop offset="1" stop-color="#00941E"/>
</linearGradient>
<linearGradient id="paint1_linear_8_1080" x1="459.78" y1="281.06" x2="524.88" y2="281.06" gradientUnits="userSpaceOnUse">
<stop stop-color="#71FF6A"/>
<stop offset="1" stop-color="#00941E"/>
</linearGradient>
<linearGradient id="paint2_linear_8_1080" x1="30.49" y1="302.87" x2="95.59" y2="302.87" gradientUnits="userSpaceOnUse">
<stop stop-color="#71FF6A"/>
<stop offset="1" stop-color="#00941E"/>
</linearGradient>
<linearGradient id="paint3_linear_8_1080" x1="106.28" y1="298.69" x2="453.73" y2="298.69" gradientUnits="userSpaceOnUse">
<stop stop-color="#71FF6A"/>
<stop offset="1" stop-color="#00941E"/>
</linearGradient>
<radialGradient id="paint4_radial_8_1080" cx="0" cy="0" r="1" gradientUnits="userSpaceOnUse" gradientTransform="translate(365.8 165.8) scale(114.48 114.48)">
<stop stop-color="#E9FFFF"/>
<stop offset="0.19" stop-color="#D4FFD7"/>
<stop offset="0.3" stop-color="#B0F4C5"/>
<stop offset="0.43" stop-color="#8DE9B3"/>
<stop offset="1" stop-color="#0F3F00"/>
</radialGradient>
<linearGradient id="paint5_linear_8_1080" x1="132.85" y1="274.21" x2="428.4" y2="274.21" gradientUnits="userSpaceOnUse">
<stop stop-color="#00941E"/>
<stop offset="1" stop-color="#151500"/>
</linearGradient>
<radialGradient id="paint6_radial_8_1080" cx="0" cy="0" r="1" gradientUnits="userSpaceOnUse" gradientTransform="translate(162.58 196.32) scale(260.22 260.22)">
<stop stop-color="#E9FFFF"/>
<stop offset="0.29" stop-color="#D4FFD7"/>
<stop offset="0.5" stop-color="#B0F4C5"/>
<stop offset="0.73" stop-color="#8DE9B3"/>
<stop offset="1" stop-color="#0F3F00"/>
</radialGradient>
<linearGradient id="paint7_linear_8_1080" x1="252.91" y1="166.43" x2="472.88" y2="166.43" gradientUnits="userSpaceOnUse">
<stop stop-color="#FFFFFA"/>
<stop offset="1" stop-color="#00941E"/>
</linearGradient>
<linearGradient id="paint8_linear_8_1080" x1="256.58" y1="166.48" x2="469.27" y2="166.48" gradientUnits="userSpaceOnUse">
<stop stop-color="#71FF6A"/>
<stop offset="1" stop-color="#00941E"/>
</linearGradient>
<linearGradient id="paint9_linear_8_1080" x1="287.11" y1="167.79" x2="431.54" y2="167.79" gradientUnits="userSpaceOnUse">
<stop stop-color="#FBFFFF"/>
<stop offset="1" stop-color="#6A6970"/>
</linearGradient>
<linearGradient id="paint10_linear_8_1080" x1="111.57" y1="195.58" x2="202.82" y2="195.58" gradientUnits="userSpaceOnUse">
<stop stop-color="#71FF6A"/>
<stop offset="1" stop-color="#00941E"/>
</linearGradient>
<radialGradient id="paint11_radial_8_1080" cx="0" cy="0" r="1" gradientUnits="userSpaceOnUse" gradientTransform="translate(119.66 121.15) scale(196.5 196.5)">
<stop stop-color="#E9FFFF"/>
<stop offset="0.29" stop-color="#BCB9C5"/>
<stop offset="0.73" stop-color="#A3BDA9"/>
<stop offset="1"/>
</radialGradient>
<linearGradient id="paint12_linear_8_1080" x1="123.14" y1="96.81" x2="193.63" y2="96.81" gradientUnits="userSpaceOnUse">
<stop stop-color="#00941E"/>
<stop offset="1" stop-color="#151500"/>
</linearGradient>
<linearGradient id="paint13_linear_8_1080" x1="129.75" y1="93.23" x2="187.01" y2="93.23" gradientUnits="userSpaceOnUse">
<stop stop-color="#71FF6A"/>
<stop offset="1" stop-color="#00941E"/>
</linearGradient>
<linearGradient id="paint14_linear_8_1080" x1="128.39" y1="93.23" x2="185.65" y2="93.23" gradientUnits="userSpaceOnUse">
<stop stop-color="#E9FFFF"/>
<stop offset="0.6" stop-color="#BCB9C5"/>
<stop offset="0.78" stop-color="#919196"/>
<stop offset="1" stop-color="#5D615F"/>
</linearGradient>
<linearGradient id="paint15_linear_8_1080" x1="129.75" y1="85.68" x2="201.95" y2="85.68" gradientUnits="userSpaceOnUse">
<stop stop-color="#00941E"/>
<stop offset="1" stop-color="#FFFFFA"/>
</linearGradient>
<linearGradient id="paint16_linear_8_1080" x1="123.69" y1="93.23" x2="193.07" y2="93.23" gradientUnits="userSpaceOnUse">
<stop stop-color="#00941E"/>
<stop offset="1" stop-color="#151500"/>
</linearGradient>
<linearGradient id="paint17_linear_8_1080" x1="129.76" y1="84.04" x2="187.01" y2="84.04" gradientUnits="userSpaceOnUse">
<stop stop-color="#00941E"/>
<stop offset="1" stop-color="#151500"/>
</linearGradient>
<linearGradient id="paint18_linear_8_1080" x1="123.7" y1="102.85" x2="193.06" y2="102.85" gradientUnits="userSpaceOnUse">
<stop stop-color="#00941E"/>
<stop offset="1" stop-color="#151500"/>
</linearGradient>
<linearGradient id="paint19_linear_8_1080" x1="154.53" y1="109.27" x2="162.23" y2="109.27" gradientUnits="userSpaceOnUse">
<stop stop-color="#E9FFFF"/>
<stop offset="0.83" stop-color="#BCB9C5"/>
<stop offset="0.9" stop-color="#BAB7C3"/>
<stop offset="0.93" stop-color="#B3B1BC"/>
<stop offset="0.95" stop-color="#A8A7B0"/>
<stop offset="0.97" stop-color="#99989F"/>
<stop offset="0.98" stop-color="#848589"/>
<stop offset="0.99" stop-color="#6B6E6F"/>
<stop offset="1" stop-color="#5D615F"/>
</linearGradient>
<linearGradient id="paint20_linear_8_1080" x1="153.85" y1="108.98" x2="163.84" y2="108.98" gradientUnits="userSpaceOnUse">
<stop stop-color="#00941E"/>
<stop offset="1" stop-color="#FFFFFA"/>
</linearGradient>
</defs>
</svg>
